<svg width="32" height="32" viewBox="0 0 32 32" fill="none" xmlns="http://www.w3.org/2000/svg">
  <path
    d="M8 0.00012207C6.9 0.00012207 6 0.900122 6 2.00012V30.0001C6 31.1001 6.9 32.0001 8 32.0001H28C29.1 32.0001 30 31.1001 30 30.0001V8.00012L22 0.00012207H8Z"
    fill="#E2E5E7" />
  <path d="M24 8.00012H30L22 0.00012207V6.00012C22 7.10012 22.9 8.00012 24 8.00012Z" fill="#B0B7BD" />
  <path d="M30 14.0001L24 8.00012H30V14.0001Z" fill="#CAD1D8" />
  <path
    d="M26 26.0001C26 26.5501 25.55 27.0001 25 27.0001H3C2.45 27.0001 2 26.5501 2 26.0001V16.0001C2 15.4501 2.45 15.0001 3 15.0001H25C25.55 15.0001 26 15.4501 26 16.0001V26.0001Z"
    fill="#71BC78" />
  <path
    d="M8.87306 18.9471C8.87306 18.2751 9.92906 18.2751 9.92906 18.9471V22.1051C9.92906 23.3611 9.32906 24.1211 7.94606 24.1211C7.26606 24.1211 6.69906 23.9361 6.20306 23.2971C5.79506 22.8091 6.56306 22.1061 6.97906 22.6171C7.31506 23.0331 7.67506 23.1291 8.02606 23.1131C8.47306 23.0971 8.86606 22.8961 8.87406 22.1051V18.9471H8.87306Z"
    fill="white" />
  <path
    d="M11.334 18.9471C11.334 18.6831 11.542 18.3951 11.878 18.3951H13.725C14.765 18.3951 15.701 19.0911 15.701 20.4251C15.701 21.6891 14.765 22.3931 13.725 22.3931H12.39V23.4491C12.39 23.8011 12.166 24.0001 11.878 24.0001C11.614 24.0001 11.334 23.8011 11.334 23.4491V18.9471ZM12.39 19.4021V21.3941H13.725C14.261 21.3941 14.685 20.9211 14.685 20.4251C14.685 19.8661 14.261 19.4021 13.725 19.4021H12.39Z"
    fill="white" />
  <path
    d="M21.411 23.3851C20.843 23.8571 20.147 24.0571 19.444 24.0571C17.764 24.0571 16.573 23.0981 16.573 21.1941C16.573 19.5801 17.829 18.3251 19.515 18.3251C20.147 18.3251 20.842 18.5401 21.338 19.0281C21.825 19.5071 21.122 20.2191 20.643 19.7961C20.347 19.5081 19.931 19.2921 19.515 19.2921C18.548 19.2921 17.613 20.0671 17.613 21.1941C17.613 22.3781 18.396 23.0981 19.444 23.0981C19.931 23.0981 20.347 22.9531 20.643 22.7381V21.7551H19.444C18.732 21.7551 18.804 20.7791 19.444 20.7791H21.043C21.339 20.7791 21.61 21.0031 21.61 21.2511V22.9541C21.61 23.0981 21.547 23.2321 21.411 23.3851Z"
    fill="white" />
  <path d="M25 27.0001H6V28.0001H25C25.55 28.0001 26 27.5501 26 27.0001V26.0001C26 26.5501 25.55 27.0001 25 27.0001Z"
    fill="#CAD1D8" />
</svg>
