<svg width="17" height="19" viewBox="0 0 17 19" fill="none" xmlns="http://www.w3.org/2000/svg">
<path d="M6.70833 2.39593V15.8126C6.70845 16.3649 6.51773 16.9003 6.16846 17.3282C5.81919 17.756 5.33282 18.0501 4.79167 18.1605C4.63416 18.1939 4.47349 18.2099 4.3125 18.2084H2.39583C1.76042 18.2084 1.15103 17.956 0.701723 17.5067C0.252417 17.0574 0 16.448 0 15.8126V2.39593C0 1.76051 0.252417 1.15113 0.701723 0.701819C1.15103 0.252513 1.76042 9.59775e-05 2.39583 9.59775e-05H4.3125C4.47349 -0.00140317 4.63416 0.014664 4.79167 0.0480126C5.33282 0.158475 5.81919 0.452516 6.16846 0.880372C6.51773 1.30823 6.70845 1.84362 6.70833 2.39593Z" fill="#CC0000"/>
<path d="M16.2918 2.39593V15.8126C16.2919 16.3649 16.1012 16.9003 15.752 17.3282C15.4027 17.756 14.9163 18.0501 14.3752 18.1605C14.2177 18.1939 14.057 18.2099 13.896 18.2084H11.9793C11.3439 18.2084 10.7345 17.956 10.2852 17.5067C9.83591 17.0574 9.5835 16.448 9.5835 15.8126V2.39593C9.5835 1.76051 9.83591 1.15113 10.2852 0.701819C10.7345 0.252513 11.3439 9.59775e-05 11.9793 9.59775e-05H13.896C14.057 -0.00140317 14.2177 0.014664 14.3752 0.0480126C14.9163 0.158475 15.4027 0.452516 15.752 0.880372C16.1012 1.30823 16.2919 1.84362 16.2918 2.39593Z" fill="#CC0000"/>
<path d="M0 9.10426H6.70833V15.8126C6.70845 16.3649 6.51773 16.9003 6.16846 17.3282C5.81919 17.756 5.33282 18.0501 4.79167 18.1605C4.63416 18.1939 4.47349 18.2099 4.3125 18.2084H2.39583C1.76042 18.2084 1.15103 17.956 0.701723 17.5067C0.252417 17.0574 0 16.448 0 15.8126V9.10426Z" fill="#A30000"/>
<path d="M16.2918 9.10426V15.8126C16.2919 16.3649 16.1012 16.9003 15.752 17.3282C15.4027 17.756 14.9163 18.0501 14.3752 18.1605C14.2177 18.1939 14.057 18.2099 13.896 18.2084H11.9793C11.3439 18.2084 10.7345 17.956 10.2852 17.5067C9.83591 17.0574 9.5835 16.448 9.5835 15.8126V9.10426H16.2918Z" fill="#A30000"/>
</svg>
