<svg width="663" height="102" viewBox="0 0 663 102" fill="none" xmlns="http://www.w3.org/2000/svg">
<g clip-path="url(#clip0_2247_10625)">
<mask id="mask0_2247_10625" style="mask-type:luminance" maskUnits="userSpaceOnUse" x="0" y="0" width="663" height="102">
<path d="M663 0H0V102H663V0Z" fill="white"/>
</mask>
<g mask="url(#mask0_2247_10625)">
<path fill-rule="evenodd" clip-rule="evenodd" d="M49.3785 0H30.4939C26.1415 0 21.8592 3.61753 20.8763 8.0153L16.4536 27.5216C16.3132 28.0891 16.7344 28.7273 17.3662 28.7273H43.3411C43.7624 28.7273 44.1834 28.4437 44.2537 27.9472L50.2911 1.20584C50.5015 0.638385 50.0101 0 49.3785 0ZM39.4098 44.5453H13.4349C13.0137 44.5453 12.5925 44.829 12.5223 45.3255L0.0263257 100.794C-0.0438764 101.078 0.0263264 101.362 0.236933 101.645C0.447539 101.858 0.658143 102 1.00915 102H18.4895C23.544 102 28.739 97.815 29.8623 92.7081L40.3925 45.822C40.4626 45.5383 40.3925 45.2546 40.1819 44.9707C39.9713 44.687 39.6905 44.5453 39.4098 44.5453ZM83.9178 44.5453L57.9429 44.4742C57.5219 44.4742 57.1007 44.7579 57.0305 45.2546L50.9228 72.0669C50.8526 72.3505 50.9228 72.6342 51.1334 72.9179C51.344 73.1307 51.5547 73.2727 51.9058 73.2727H70.5094C74.8617 73.2727 79.4249 69.7261 80.4778 65.3991L84.9709 45.822C85.0411 45.5383 84.9709 45.2546 84.7603 44.9707C84.4796 44.687 84.2689 44.5453 83.9178 44.5453ZM87.4983 0H68.0522C67.6309 0 67.2096 0.283725 67.1395 0.78025L60.9616 27.5924C60.8915 27.8763 60.9616 28.16 61.1723 28.4437C61.3829 28.6565 61.5935 28.7985 61.9447 28.7985H88.0598C88.481 28.7985 88.9023 28.5145 88.9724 28.018L93.6058 8.0153C94.5885 3.5466 91.8506 0 87.4983 0Z" fill="#CC0000"/>
<path fill-rule="evenodd" clip-rule="evenodd" d="M178.111 22.7355C177.918 22.2485 177.436 22.0537 176.665 22.0537H135.601C134.83 22.0537 134.251 22.2485 133.962 22.6381C133.576 23.0277 133.384 23.5147 133.287 24.0991L122.684 79.0312C122.587 79.6156 122.587 80.1025 122.876 80.492C123.069 80.8818 123.648 80.9791 124.322 80.9791H134.733C135.504 80.9791 135.986 80.7842 136.276 80.2974C136.565 79.8102 136.757 79.4207 136.854 79.0312L145.433 34.1311H162.013L153.434 79.0312C153.337 79.6156 153.337 80.1025 153.627 80.492C153.819 80.8818 154.398 80.9791 155.073 80.9791H165.483C166.255 80.9791 166.833 80.7842 167.122 80.2974C167.411 79.8102 167.508 79.4207 167.604 79.0312L178.208 24.0991C178.304 23.6121 178.304 23.1251 178.111 22.7355ZM220.911 37.1503H211.078C210.307 37.1503 209.729 37.3452 209.44 37.832C209.151 38.3191 208.958 38.7087 208.861 39.0982L203.656 66.3697C202.692 66.7592 201.343 67.2461 199.703 67.8305C198.065 68.4149 196.619 68.7071 195.269 68.7071C193.438 68.7071 192.185 68.22 191.606 67.246C191.028 66.2721 190.932 64.5191 191.413 62.084L195.848 39.0009C195.945 38.4164 195.945 37.9296 195.752 37.5398C195.558 37.1503 195.077 37.0529 194.305 37.0529H184.377C183.509 37.0529 183.027 37.2476 182.738 37.7347C182.449 38.2218 182.256 38.6113 182.16 39.0009L177.244 64.3242C176.858 66.5643 176.569 68.7071 176.28 70.7524C176.087 72.7979 176.28 74.6482 176.762 76.2066C177.244 77.765 178.304 79.0312 179.846 80.0051C181.389 80.9791 183.702 81.4662 186.787 81.4662C188.811 81.4662 191.221 81.0764 193.823 80.2C196.522 79.3234 199.029 78.1545 201.343 76.5961L201.535 76.6937L201.053 78.8363C200.957 79.3234 201.053 79.7129 201.15 80.2C201.246 80.5896 201.728 80.7842 202.596 80.7842H212.524C213.295 80.7842 213.777 80.5896 214.067 80.2974C214.356 79.9078 214.549 79.518 214.645 78.8363L222.356 39.0009C222.839 37.832 222.26 37.1503 220.911 37.1503ZM258.698 55.4609C260.144 53.9028 261.782 51.4678 263.517 48.1563L268.145 39.3904C268.434 38.9036 268.53 38.4164 268.434 37.9296C268.337 37.4425 267.855 37.2476 267.084 37.2476H258.216C256.963 37.2476 256.095 37.4425 255.613 37.7347C255.131 38.0269 254.649 38.7087 254.167 39.5853L249.444 47.8641C248.287 49.9094 247.13 51.2729 246.07 51.76C244.913 52.3444 243.756 52.6366 242.503 52.6366H240.479L243.082 39.0982C243.178 38.7087 243.178 38.3191 243.082 37.832C242.889 37.4425 242.503 37.2476 241.732 37.2476H231.707C231.033 37.2476 230.454 37.4425 230.165 37.7347C229.779 38.1242 229.586 38.5138 229.49 39.0982L221.875 79.1285C221.778 79.6156 221.778 80.1025 221.971 80.492C222.164 80.8818 222.646 80.9791 223.32 80.9791H233.346C234.117 80.9791 234.695 80.7842 234.888 80.3947C235.081 80.0051 235.274 79.6156 235.37 79.1285L238.262 63.9346H241.443C242.696 63.9346 243.853 64.3242 245.01 65.1035C246.166 65.8826 246.841 67.3436 247.13 69.4862L248.191 77.8623C248.383 79.0312 248.576 79.8102 248.962 80.2974C249.251 80.6869 250.118 80.8818 251.564 80.8818H259.662C260.433 80.8818 260.915 80.6869 261.204 80.2C261.493 79.7129 261.589 79.2261 261.493 78.739L260.336 69.4862C260.047 66.7592 259.469 64.4218 258.505 62.4738C257.541 60.5259 256.095 59.1621 253.974 58.5777L254.071 58.3831C255.613 58.0909 257.252 57.0193 258.698 55.4609ZM305.545 39.8775C305.354 39.3904 304.871 38.9036 304.099 38.6113C302.364 37.832 300.342 37.1503 297.835 36.858C295.425 36.4685 293.112 36.3712 290.989 36.3712C286.654 36.3712 283.085 36.9556 280.291 38.1242C277.494 39.2931 275.181 40.8515 273.445 42.7994C271.711 44.7473 270.362 46.9875 269.398 49.6171C268.434 52.1495 267.759 54.8768 267.181 57.7986C266.892 59.1621 266.698 60.6232 266.506 62.1816C266.313 63.74 266.313 65.2008 266.313 66.467C266.313 68.5122 266.602 70.4601 267.084 72.3108C267.566 74.1614 268.434 75.8171 269.687 77.1806C270.94 78.6417 272.675 79.7129 274.891 80.5896C277.11 81.3686 279.906 81.8558 283.279 81.8558C284.34 81.8558 285.497 81.8558 286.654 81.7582C287.808 81.6609 289.063 81.5635 290.315 81.3686C291.567 81.174 292.724 80.9791 293.881 80.6869C295.038 80.3947 296.099 80.1025 296.967 79.8102C298.413 79.2261 299.281 78.6417 299.665 78.1545C299.955 77.6677 300.148 76.791 300.148 75.7198V70.6551C300.148 69.6811 299.954 69.0967 299.57 68.9993C299.185 68.902 298.508 68.902 297.545 68.9993C295.616 69.1942 293.786 69.3889 291.955 69.4862C290.124 69.5838 288.58 69.6811 287.423 69.6811C285.109 69.6811 283.472 69.1942 282.411 68.22C281.35 67.246 280.771 65.6879 280.771 63.4478C280.771 62.766 280.771 62.084 280.869 61.305C280.965 60.5259 281.06 59.6493 281.159 58.5777C281.833 54.9741 282.894 52.3444 284.531 50.786C286.075 49.2276 288.389 48.351 291.278 48.351C292.629 48.351 293.979 48.4486 295.327 48.5459C296.678 48.6432 298.219 48.8381 300.053 49.0327C300.628 49.1303 301.111 49.1303 301.496 49.1303C301.883 49.1303 302.268 49.1303 302.462 49.0327C302.653 48.9354 302.942 48.7405 303.04 48.5459C303.231 48.2536 303.425 47.8641 303.521 47.4743L305.16 42.0201C305.739 41.0461 305.739 40.3644 305.545 39.8775ZM344.681 43.1889C343.816 41.7281 342.659 40.462 341.309 39.488C339.863 38.5138 338.223 37.832 336.297 37.3452C334.368 36.858 332.441 36.6634 330.414 36.6634C326.27 36.6634 322.802 37.2476 320.005 38.3191C317.209 39.4877 314.895 40.9488 312.969 42.7021C311.135 44.5524 309.594 46.5979 308.631 48.8381C307.569 51.0782 306.8 53.3184 306.222 55.5585C305.739 57.4091 305.354 59.2594 305.065 61.2076C304.776 63.1556 304.582 65.0062 304.582 66.9541C304.582 69.5838 304.967 71.9212 305.834 73.7718C306.606 75.6222 307.763 77.1806 309.209 78.4468C310.655 79.6156 312.391 80.4923 314.51 81.0764C316.535 81.5635 318.849 81.8558 321.353 81.8558C322.608 81.8558 323.861 81.8558 325.307 81.7582C326.753 81.6609 328.103 81.5635 329.549 81.3686C330.995 81.174 332.343 80.9791 333.596 80.7842C334.851 80.4923 336.008 80.2 336.971 79.8102C338.223 79.3234 339.091 78.8363 339.478 78.3494C339.863 77.8623 340.054 76.9859 340.054 75.8171V71.5317C340.054 70.7524 339.863 70.2655 339.478 70.0706C339.091 69.876 338.515 69.876 337.934 70.0706C335.525 70.3628 333.306 70.5577 331.476 70.6551C329.642 70.7524 327.716 70.85 325.691 70.85C324.633 70.85 323.67 70.85 322.802 70.7524C321.934 70.6551 321.162 70.5577 320.488 70.2655C319.812 70.0706 319.332 69.6811 319.042 69.1942C318.655 68.7071 318.559 68.1227 318.559 67.246C318.559 66.467 318.655 65.6879 318.944 65.0062C321.643 64.9086 324.535 64.6164 327.716 64.1295C330.897 63.6424 333.888 62.8634 336.586 61.6945C339.38 60.5259 341.598 58.8699 343.429 56.8247C345.262 54.6819 346.225 51.8573 346.225 48.4486C346.034 46.403 345.551 44.65 344.681 43.1889ZM330.611 52.8312C329.839 53.6106 328.873 54.1947 327.716 54.6819C326.559 55.1687 325.307 55.5585 323.861 55.7531C322.415 55.948 321.064 56.1429 319.812 56.2402C320.101 55.2663 320.488 54.1947 320.778 53.1235C321.162 52.0522 321.643 51.0782 322.224 50.2016C322.802 49.3249 323.572 48.6432 324.439 48.0587C325.307 47.4743 326.368 47.1824 327.716 47.1824C328.968 47.1824 329.934 47.4743 330.611 47.9614C331.285 48.4483 331.574 49.1303 331.574 50.0067C331.765 51.1755 331.38 52.0522 330.611 52.8312ZM394.807 38.7087C394.807 38.3191 394.712 38.0269 394.521 37.7347C394.324 37.4425 393.844 37.2476 393.17 37.2476H367.913C366.467 37.2476 365.313 37.3452 364.347 37.6374C363.384 37.832 362.514 38.3191 361.938 38.806C361.262 39.3904 360.686 40.0721 360.301 41.0461C359.815 42.0201 359.431 43.1889 359.046 44.5524L354.514 62.4738C353.84 65.0062 352.874 67.0514 351.622 68.5122C350.367 69.9733 348.539 71.0446 346.127 71.629C345.262 71.9212 344.681 72.2134 344.392 72.603C344.105 72.8952 343.909 73.382 343.909 74.0641L344.296 80.2974C344.392 80.9791 344.49 81.4662 344.779 81.7582C345.066 82.0504 345.647 82.2453 346.512 82.2453C350.176 82.2453 353.259 81.7582 355.674 80.6869C358.083 79.6156 360.007 78.2521 361.551 76.4988C362.997 74.7458 364.154 72.7003 365.021 70.3628C365.793 68.0254 366.563 65.5903 367.239 62.9607L370.614 48.2537H379.673C378.71 53.513 377.648 58.5777 376.688 63.74C375.719 68.8044 374.661 73.9665 373.698 79.2261V79.518C373.698 79.6156 373.698 79.7129 373.698 79.7129V79.8102C373.698 80.6869 374.279 81.0764 375.433 81.0764H385.168C386.038 81.0764 386.614 80.8818 386.903 80.492C387.192 80.1025 387.386 79.7129 387.484 79.2261L395.096 39.0982V38.7087H394.807ZM431.632 52.2468C430.377 51.3704 428.934 50.786 427.294 50.3965C425.657 50.1043 423.922 49.9094 422.184 49.9094C420.356 49.9094 418.522 50.1043 416.883 50.3965C415.246 50.6887 413.51 51.1755 411.868 51.6627C411.868 51.5651 411.868 51.5651 411.775 51.5651C412.157 49.6171 412.544 47.6692 412.929 45.7213C413.314 43.7734 413.701 41.8254 413.99 39.8775C414.086 39.2931 414.184 38.9036 414.184 38.6113C414.184 37.6374 413.51 37.1503 412.255 37.1503H403.099C402.037 37.1503 401.363 37.3452 401.072 37.832C400.782 38.3191 400.591 39.0009 400.398 39.9748C399.244 45.7213 398.182 51.5651 397.124 57.3115C396.062 63.058 394.905 68.8044 393.749 74.6482C393.65 74.9404 393.65 75.2326 393.65 75.4275C393.65 75.6222 393.65 75.9144 393.65 76.1093C393.65 76.791 393.749 77.2782 394.035 77.765C394.324 78.2521 394.807 78.6417 395.481 79.0312C396.444 79.518 397.699 79.9078 399.145 80.2974C400.591 80.6869 402.136 80.9791 403.674 81.174C405.317 81.3686 406.954 81.5635 408.591 81.6609C410.329 81.7582 411.966 81.7582 413.51 81.7582C417.267 81.7582 420.547 81.3686 423.15 80.492C425.75 79.7129 427.87 78.5441 429.608 77.0833C431.343 75.6222 432.691 73.9665 433.561 72.1161C434.426 70.1682 435.1 68.1227 435.488 65.9801C435.583 65.493 435.681 64.8113 435.774 64.0322C435.872 63.2529 435.872 62.6685 435.872 62.1816C435.872 59.6493 435.488 57.6037 434.715 55.948C433.85 54.3896 432.882 53.1235 431.632 52.2468ZM420.061 68.8044C419.196 70.0706 417.366 70.7524 414.664 70.7524C413.603 70.7524 412.544 70.7524 411.483 70.6551C410.422 70.5577 409.461 70.4601 408.591 70.3628L410.231 61.8894C411.483 61.4999 412.544 61.2076 413.603 61.0127C414.569 60.8181 415.723 60.7205 417.076 60.7205C418.713 60.7205 419.87 61.1098 420.449 61.7921C421.03 62.4738 421.316 63.3502 421.414 64.3242C421.414 65.9801 420.932 67.5383 420.061 68.8044ZM514.63 22.7355C514.434 22.2485 513.953 22.0537 513.184 22.0537H472.119C471.347 22.0537 470.766 22.2485 470.476 22.6381C470.092 23.0277 469.901 23.5147 469.803 24.0991L459.2 79.0312C459.105 79.6156 459.104 80.1025 459.391 80.492C459.587 80.8818 460.163 80.9791 460.837 80.9791H471.249C472.021 80.9791 472.504 80.7842 472.793 80.2974C473.082 79.8102 473.273 79.4207 473.369 79.0312L481.949 34.1311H498.53L489.952 79.0312C489.854 79.6156 489.854 80.1025 490.143 80.492C490.336 80.8818 490.915 80.9791 491.589 80.9791H501.902C502.674 80.9791 503.25 80.7842 503.545 80.2974C503.831 79.8102 503.929 79.4207 504.022 79.0312L514.63 24.0991C514.821 23.6121 514.723 23.1251 514.63 22.7355ZM559.935 38.7087C559.935 38.3191 559.837 38.0269 559.646 37.7347C559.452 37.4425 558.972 37.2476 558.293 37.2476H533.137C531.691 37.2476 530.531 37.3452 529.571 37.6374C528.608 37.832 527.737 38.3191 527.162 38.806C526.482 39.3904 525.907 40.0721 525.519 41.0461C525.039 42.0201 524.654 43.1889 524.27 44.5524L519.735 62.4738C519.061 65.0062 518.098 67.0514 516.843 68.5122C515.59 69.9733 513.76 71.0446 511.351 71.629C510.483 71.9212 509.905 72.2134 509.615 72.603C509.323 72.8952 509.132 73.382 509.132 74.0641L509.52 80.2974C509.615 80.9791 509.711 81.4662 510.003 81.7582C510.292 82.0504 510.868 82.2453 511.738 82.2453C515.4 82.2453 518.485 81.7582 520.892 80.6869C523.301 79.6156 525.23 78.2521 526.774 76.4988C528.22 74.7458 529.374 72.7003 530.245 70.3628C531.017 68.0254 531.786 65.5903 532.463 62.9607L535.832 48.2537H544.896C543.933 53.513 542.872 58.5777 541.906 63.74C540.943 68.8044 539.884 73.9665 538.921 79.2261V79.518C538.921 79.6156 538.921 79.7129 538.921 79.7129V79.8102C538.921 80.6869 539.497 81.0764 540.656 81.0764H550.391C551.259 81.0764 551.835 80.8818 552.126 80.492C552.416 80.1025 552.607 79.7129 552.705 79.2261L560.32 39.0982V38.7087H559.935ZM617.193 41.0461C615.843 39.5853 614.107 38.5138 611.987 37.6374C609.865 36.858 607.169 36.3712 603.89 36.3712C600.422 36.3712 597.333 36.858 594.829 37.832C592.321 38.806 590.201 40.1697 588.466 41.7281C586.733 43.2862 585.383 45.1369 584.324 47.0848C583.263 49.0327 582.491 50.9806 581.91 52.9288H577.285C577.768 50.5911 578.153 48.351 578.633 46.0135C579.018 43.6761 579.5 41.3383 579.986 39.0009V38.4164C579.986 38.0269 579.888 37.7347 579.697 37.4425C579.5 37.1503 579.116 36.9556 578.442 36.9556H568.611C567.839 36.9556 567.258 37.1503 566.969 37.5398C566.682 37.9296 566.393 38.4164 566.295 39.0009L558.68 78.739V79.3234C558.68 80.2 559.163 80.6869 560.126 80.6869H570.057C570.824 80.6869 571.405 80.4923 571.694 80.1025C571.984 79.7129 572.177 79.2261 572.27 78.739C572.753 76.1093 573.239 73.4796 573.716 70.85C574.199 68.22 574.778 65.5903 575.26 62.9607H580.079C580.079 63.2529 580.079 63.5451 580.079 63.9346C580.079 64.3242 580.079 64.6164 580.079 64.9086C580.079 67.246 580.371 69.4862 581.045 71.4341C581.623 73.4796 582.584 75.2326 583.937 76.6937C585.285 78.1545 587.02 79.3234 589.14 80.1025C591.263 80.8818 593.865 81.3686 596.85 81.3686C599.939 81.3686 602.634 81.0764 604.951 80.3947C607.262 79.7129 609.191 78.8363 610.828 77.6677C612.47 76.4988 613.818 75.1353 614.88 73.6743C615.938 72.1161 616.809 70.5577 617.482 68.8044C618.156 67.0514 618.735 65.2981 619.119 63.5451C619.507 61.7921 619.892 60.0388 620.181 58.3831C620.565 56.5325 620.762 54.2923 620.762 51.6627C620.762 49.6171 620.467 47.7665 619.99 45.8186C619.409 44.1629 618.544 42.5072 617.193 41.0461ZM606.588 59.0648C605.914 62.6685 604.951 65.3957 603.794 67.1487C602.634 68.9993 600.711 69.876 598.105 69.876C596.373 69.876 595.118 69.3889 594.441 68.5122C593.767 67.6359 593.481 66.1748 593.481 64.3242C593.481 63.6424 593.576 62.8634 593.672 61.8894C593.767 61.0127 593.964 60.0388 594.155 59.0648C594.829 55.5585 595.792 52.8312 596.949 51.0782C598.105 49.3249 599.841 48.351 602.157 48.351C604.179 48.351 605.527 48.8381 606.203 49.7145C606.877 50.5911 607.262 52.0522 607.262 53.9028C607.169 55.3636 606.973 57.1169 606.588 59.0648ZM662.689 39.8775C662.498 39.3904 662.015 38.9036 661.243 38.6113C659.511 37.832 657.486 37.1503 654.982 36.858C652.572 36.4685 650.256 36.3712 648.136 36.3712C643.798 36.3712 640.232 36.9556 637.435 38.1242C634.641 39.2931 632.325 40.8515 630.592 42.7994C628.857 44.7473 627.507 46.9875 626.541 49.6171C625.578 52.1495 624.904 54.8768 624.328 57.7986C624.036 59.1621 623.845 60.6232 623.649 62.1816C623.458 63.74 623.458 65.2008 623.458 66.467C623.458 68.5122 623.747 70.4601 624.23 72.3108C624.713 74.1614 625.578 75.8171 626.833 77.1806C628.085 78.6417 629.82 79.7129 632.038 80.5896C634.254 81.3686 637.05 81.8558 640.425 81.8558C641.487 81.8558 642.638 81.8558 643.798 81.7582C644.955 81.6609 646.207 81.5635 647.462 81.3686C648.712 81.174 649.871 80.9791 651.028 80.6869C652.185 80.3947 653.246 80.1025 654.111 79.8102C655.557 79.2261 656.427 78.6417 656.812 78.1545C657.101 77.6677 657.292 76.791 657.292 75.7198V70.6551C657.292 69.6811 657.101 69.0967 656.714 68.9993C656.329 68.902 655.655 68.902 654.692 68.9993C652.763 69.1942 650.93 69.3889 649.099 69.4862C647.266 69.5838 645.727 69.6811 644.57 69.6811C642.253 69.6811 640.616 69.1942 639.555 68.22C638.497 67.246 637.918 65.6879 637.918 63.4478C637.918 62.766 637.918 62.084 638.014 61.305C638.109 60.5259 638.207 59.6493 638.3 58.5777C638.979 54.9741 640.041 52.3444 641.678 50.786C643.219 49.2276 645.533 48.351 648.425 48.351C649.773 48.351 651.126 48.4486 652.474 48.5459C653.822 48.6432 655.366 48.8381 657.197 49.0327C657.775 49.1303 658.258 49.1303 658.643 49.1303C659.025 49.1303 659.412 49.1303 659.606 49.0327C659.797 48.9354 660.086 48.7405 660.185 48.5459C660.378 48.2536 660.569 47.8641 660.667 47.4743L662.305 42.0201C662.886 41.0461 662.978 40.3644 662.689 39.8775Z" fill="black"/>
</g>
</g>
<defs>
<clipPath id="clip0_2247_10625">
<rect width="663" height="102" fill="white"/>
</clipPath>
</defs>
</svg>
