<svg width="17" height="18" viewBox="0 0 17 18" fill="none" xmlns="http://www.w3.org/2000/svg">
  <path
    d="M11.9863 13.6484C11.6196 13.6484 11.3223 13.9457 11.3223 14.3125V16.1719H1.82617V1.82812H11.3223V3.6875C11.3223 4.05426 11.6196 4.35156 11.9863 4.35156C12.3531 4.35156 12.6504 4.05426 12.6504 3.6875V1.16406C12.6504 0.797301 12.3531 0.5 11.9863 0.5H1.16211C0.795348 0.5 0.498047 0.797301 0.498047 1.16406V16.8359C0.498047 17.2027 0.795348 17.5 1.16211 17.5H11.9863C12.3531 17.5 12.6504 17.2027 12.6504 16.8359V14.3125C12.6504 13.9457 12.3531 13.6484 11.9863 13.6484Z"
    fill="#ED2B1B" />
  <path
    d="M16.3074 8.53047L14.5231 6.74614C14.2638 6.48679 13.8433 6.48682 13.584 6.74614C13.3246 7.00545 13.3246 7.42594 13.584 7.68529L14.2347 8.33597L8.73364 8.33593C8.36691 8.33593 8.06958 8.63323 8.06958 9C8.06958 9.36676 8.36688 9.66406 8.73364 9.66406L14.2347 9.66409L13.584 10.3148C13.3246 10.5741 13.3246 10.9946 13.584 11.254C13.8433 11.5133 14.2638 11.5132 14.5231 11.2539L16.3074 9.46959C16.3075 9.46952 16.3076 9.46942 16.3076 9.46942C16.4412 9.33571 16.4971 9.18115 16.5019 9.00003C16.5019 8.821 16.4259 8.64887 16.3074 8.53047Z"
    fill="#ED2B1B" />
</svg>
