<svg width="32" height="32" viewBox="0 0 32 32" fill="none" xmlns="http://www.w3.org/2000/svg">
<path fill-rule="evenodd" clip-rule="evenodd" d="M9.99707 1.99625C8.90637 1.99625 7.99707 2.90555 7.99707 3.99625V11.9962C7.99707 13.0869 8.90637 13.9962 9.99707 13.9962H21.9971C23.0878 13.9962 23.9971 13.0869 23.9971 11.9962V3.99625C23.9971 2.90555 23.0878 1.99625 21.9971 1.99625H9.99707Z" fill="#41A5EE"/>
<path fill-rule="evenodd" clip-rule="evenodd" d="M3.99707 11.9962C2.90637 11.9962 1.99707 12.9055 1.99707 13.9962V24.9962C1.99707 26.0869 2.90637 26.9962 3.99707 26.9962H27.9971C29.0878 26.9962 29.9971 26.0869 29.9971 24.9962V13.9962C29.9971 12.9055 29.0878 11.9962 27.9971 11.9962H3.99707Z" fill="#0077CC"/>
<path fill-rule="evenodd" clip-rule="evenodd" d="M7.99707 20.9962C7.44479 20.9962 6.99707 21.444 6.99707 21.9962C6.99707 22.5485 7.44479 22.9962 7.99707 22.9962V27.9962C7.99707 29.0869 8.90637 29.9962 9.99707 29.9962H21.9971C23.0878 29.9962 23.9971 29.0869 23.9971 27.9962V22.9962C24.5494 22.9962 24.9971 22.5485 24.9971 21.9962C24.9971 21.444 24.5494 20.9962 23.9971 20.9962C18.6637 20.9962 13.3304 20.9962 7.99707 20.9962Z" fill="#41A5EE"/>
<path fill-rule="evenodd" clip-rule="evenodd" d="M6.99707 15.9962C6.73185 15.9962 6.47751 16.1016 6.28998 16.2891C6.10244 16.4767 5.99707 16.731 5.99707 16.9962C5.99707 17.2615 6.10244 17.5158 6.28998 17.7033C6.47751 17.8909 6.73185 17.9962 6.99707 17.9962C7.26229 17.9962 7.51666 17.8909 7.70419 17.7033C7.89173 17.5158 7.99707 17.2615 7.99707 16.9962C7.99707 16.731 7.89173 16.4767 7.70419 16.2891C7.51666 16.1016 7.26229 15.9962 6.99707 15.9962Z" fill="#D7EEFE"/>
<path fill-rule="evenodd" clip-rule="evenodd" d="M8.99707 15.9962C8.73185 15.9962 8.47751 16.1016 8.28998 16.2891C8.10244 16.4767 7.99707 16.731 7.99707 16.9962C7.99707 17.2615 8.10244 17.5158 8.28998 17.7033C8.47751 17.8909 8.73185 17.9962 8.99707 17.9962C9.26229 17.9962 9.51666 17.8909 9.70419 17.7033C9.89173 17.5158 9.99707 17.2615 9.99707 16.9962C9.99707 16.731 9.89173 16.4767 9.70419 16.2891C9.51666 16.1016 9.26229 15.9962 8.99707 15.9962Z" fill="#D7EEFE"/>
<path fill-rule="evenodd" clip-rule="evenodd" d="M10.9971 15.9962C10.7319 15.9962 10.4775 16.1016 10.29 16.2891C10.1024 16.4767 9.99707 16.731 9.99707 16.9962C9.99707 17.2615 10.1024 17.5158 10.29 17.7033C10.4775 17.8909 10.7319 17.9962 10.9971 17.9962C11.2623 17.9962 11.5167 17.8909 11.7042 17.7033C11.8917 17.5158 11.9971 17.2615 11.9971 16.9962C11.9971 16.731 11.8917 16.4767 11.7042 16.2891C11.5167 16.1016 11.2623 15.9962 10.9971 15.9962Z" fill="#D7EEFE"/>
<path fill-rule="evenodd" clip-rule="evenodd" d="M12.9971 4.99625C12.7319 4.99625 12.4775 5.10159 12.29 5.28912C12.1024 5.47666 11.9971 5.73103 11.9971 5.99625C11.9971 6.26146 12.1024 6.5158 12.29 6.70334C12.4775 6.89087 12.7319 6.99625 12.9971 6.99625H18.9971C19.2623 6.99625 19.5167 6.89087 19.7042 6.70334C19.8917 6.5158 19.9971 6.26146 19.9971 5.99625C19.9971 5.73103 19.8917 5.47666 19.7042 5.28912C19.5167 5.10159 19.2623 4.99625 18.9971 4.99625H12.9971Z" fill="#D7EEFE"/>
<path fill-rule="evenodd" clip-rule="evenodd" d="M12.9971 7.99625C12.7319 7.99625 12.4775 8.10159 12.29 8.28912C12.1024 8.47666 11.9971 8.73103 11.9971 8.99625C11.9971 9.26146 12.1024 9.5158 12.29 9.70334C12.4775 9.89087 12.7319 9.99625 12.9971 9.99625H18.9971C19.2623 9.99625 19.5167 9.89087 19.7042 9.70334C19.8917 9.5158 19.9971 9.26146 19.9971 8.99625C19.9971 8.73103 19.8917 8.47666 19.7042 8.28912C19.5167 8.10159 19.2623 7.99625 18.9971 7.99625H12.9971Z" fill="#D7EEFE"/>
</svg>
