<svg width="32" height="32" viewBox="0 0 32 32" fill="none" xmlns="http://www.w3.org/2000/svg">
  <path
    d="M31.2268 25.4668C30.5938 26.2268 29.6559 26.6664 28.6668 26.6668H3.33343C2.34431 26.6664 1.40644 26.2268 0.773438 25.4668L13.0001 15.2802L14.2668 16.1468C15.3102 16.8668 16.69 16.8668 17.7335 16.1468L19.0002 15.2802L31.2268 25.4668Z"
    fill="#1E88E5" />
  <path
    d="M31.4135 6.78685L19.0002 15.2802L17.7335 16.1468C16.6901 16.8668 15.3103 16.8668 14.2668 16.1468L13.0001 15.2802L0.586914 6.77348C1.21154 5.87279 2.23747 5.33492 3.3336 5.33348H28.6669C29.7679 5.32767 30.7989 5.87317 31.4135 6.78685Z"
    fill="#64B5F6" />
  <path
    d="M13 15.2802L0.77337 25.4668C0.272934 24.8687 -0.000878248 24.1134 5.92503e-05 23.3335V8.66685C-0.00400324 7.99042 0.200934 7.32917 0.586746 6.77354L13 15.2802Z"
    fill="#2196F3" />
  <path
    d="M32 8.66685V23.3335C32.0008 24.1134 31.7271 24.8687 31.2267 25.4668L19 15.2801L31.4133 6.78685C31.7972 7.33847 32.002 7.99479 32 8.66685Z"
    fill="#2196F3" />
</svg>
