<svg width="32" height="32" viewBox="0 0 32 32" fill="none" xmlns="http://www.w3.org/2000/svg">
  <path
    d="M8 0.00012207C6.9 0.00012207 6 0.900122 6 2.00012V30.0001C6 31.1001 6.9 32.0001 8 32.0001H28C29.1 32.0001 30 31.1001 30 30.0001V8.00012L22 0.00012207H8Z"
    fill="#E2E5E7" />
  <path d="M24 8.00012H30L22 0.00012207V6.00012C22 7.10012 22.9 8.00012 24 8.00012Z" fill="#B0B7BD" />
  <path d="M30 14.0001L24 8.00012H30V14.0001Z" fill="#CAD1D8" />
  <path
    d="M26 26.0001C26 26.5501 25.55 27.0001 25 27.0001H3C2.45 27.0001 2 26.5501 2 26.0001V16.0001C2 15.4501 2.45 15.0001 3 15.0001H25C25.55 15.0001 26 15.4501 26 16.0001V26.0001Z"
    fill="#F15642" />
  <path
    d="M6.35889 18.9471C6.35889 18.6831 6.56689 18.3951 6.90189 18.3951H8.74889C9.78889 18.3951 10.7249 19.0911 10.7249 20.4251C10.7249 21.6891 9.78889 22.3931 8.74889 22.3931H7.41389V23.4491C7.41389 23.8011 7.18989 24.0001 6.90189 24.0001C6.63789 24.0001 6.35889 23.8011 6.35889 23.4491V18.9471ZM7.41389 19.4021V21.3941H8.74889C9.28489 21.3941 9.70889 20.9211 9.70889 20.4251C9.70889 19.8661 9.28489 19.4021 8.74889 19.4021H7.41389Z"
    fill="white" />
  <path
    d="M12.2908 24.0001C12.0268 24.0001 11.7388 23.8561 11.7388 23.5051V18.9631C11.7388 18.6761 12.0268 18.4671 12.2908 18.4671H14.1218C17.7758 18.4671 17.6958 24.0001 14.1938 24.0001H12.2908ZM12.7948 19.4431V23.0251H14.1218C16.2808 23.0251 16.3768 19.4431 14.1218 19.4431H12.7948Z"
    fill="white" />
  <path
    d="M18.9918 19.5071V20.7781H21.0308C21.3188 20.7781 21.6068 21.0661 21.6068 21.3451C21.6068 21.6091 21.3188 21.8251 21.0308 21.8251H18.9918V23.5041C18.9918 23.7841 18.7928 23.9991 18.5128 23.9991C18.1608 23.9991 17.9458 23.7841 17.9458 23.5041V18.9621C17.9458 18.6751 18.1618 18.4661 18.5128 18.4661H21.3198C21.6718 18.4661 21.8798 18.6751 21.8798 18.9621C21.8798 19.2181 21.6718 19.5061 21.3198 19.5061H18.9918V19.5071Z"
    fill="white" />
  <path d="M25 27.0001H6V28.0001H25C25.55 28.0001 26 27.5501 26 27.0001V26.0001C26 26.5501 25.55 27.0001 25 27.0001Z"
    fill="#CAD1D8" />
</svg>
