<svg width="24" height="24" viewBox="0 0 24 24" fill="none" xmlns="http://www.w3.org/2000/svg">
  <path fill-rule="evenodd" clip-rule="evenodd"
    d="M9.43431 3.23444C9.74673 2.92202 10.2533 2.92202 10.5657 3.23444L22.1657 14.8344C22.4781 15.1469 22.4781 15.6534 22.1657 15.9658L18.7314 19.4001H23.2C23.6418 19.4001 24 19.7583 24 20.2001C24 20.642 23.6418 21.0001 23.2 21.0001H0.8C0.358172 21.0001 0 20.642 0 20.2001C0 19.7583 0.358172 19.4001 0.8 19.4001H10.0686L2.23431 11.5658C1.9219 11.2534 1.9219 10.7469 2.23431 10.4344L9.43431 3.23444ZM19.8705 15.9983L16.4686 19.4001H12.3314L3.93137 11.0001L9.44943 5.48207L10.8094 14.3217C10.864 14.6766 11.1483 14.9516 11.5048 14.9944L19.8705 15.9983ZM19.3987 14.3302L12.2984 13.4782L11.1624 6.09387L19.3987 14.3302Z"
    fill="currentColor" />
</svg>
