<svg width="16" height="18" viewBox="0 0 16 18" fill="none" xmlns="http://www.w3.org/2000/svg">
<path fill-rule="evenodd" clip-rule="evenodd" d="M15.3886 8.26225L1.27833 0.115488C1.14928 0.0403679 1.00272 0.000537609 0.853398 0H0.850937C0.701533 0.000593386 0.554908 0.0404441 0.425757 0.115559C0.295695 0.189733 0.187713 0.297181 0.112894 0.426875C0.038076 0.556568 -0.000883303 0.703835 1.51966e-05 0.853559V17.1469C-0.000575724 17.2968 0.0384296 17.4441 0.113082 17.574C0.187734 17.7039 0.295383 17.8117 0.42513 17.8866C0.554876 17.9616 0.702113 18.0009 0.851934 18.0006C1.00175 18.0003 1.14884 17.9604 1.2783 17.885L15.3886 9.73821C15.5182 9.66343 15.6257 9.55585 15.7005 9.42631C15.7753 9.29677 15.8147 9.14982 15.8147 9.00023C15.8147 8.85064 15.7753 8.70369 15.7005 8.57415C15.6257 8.4446 15.5182 8.33703 15.3886 8.26225Z" fill="#CC0000"/>
<path fill-rule="evenodd" clip-rule="evenodd" d="M0.0244207 9.06236V17.1472C0.0238298 17.297 0.0628351 17.4444 0.137488 17.5743C0.21214 17.7042 0.319789 17.812 0.449535 17.8869C0.579282 17.9619 0.726519 18.0012 0.876339 18.0009C1.02616 18.0006 1.17324 17.9607 1.3027 17.8853L15.413 9.7385C15.5426 9.66372 15.6501 9.55615 15.7249 9.4266C15.7894 9.31497 15.8276 9.1904 15.8369 9.06236H0.0244207Z" fill="#A30000"/>
</svg>
