<svg width="18" height="18" viewBox="0 0 18 18" fill="none" xmlns="http://www.w3.org/2000/svg">
  <path
    d="M8.99935 17.3333C4.39685 17.3333 0.666016 13.6025 0.666016 8.99996C0.666016 4.39746 4.39685 0.666626 8.99935 0.666626C13.6018 0.666626 17.3327 4.39746 17.3327 8.99996C17.3327 13.6025 13.6018 17.3333 8.99935 17.3333ZM8.99935 15.6666C10.7675 15.6666 12.4632 14.9642 13.7134 13.714C14.9636 12.4638 15.666 10.7681 15.666 8.99996C15.666 7.23185 14.9636 5.53616 13.7134 4.28591C12.4632 3.03567 10.7675 2.33329 8.99935 2.33329C7.23124 2.33329 5.53555 3.03567 4.2853 4.28591C3.03506 5.53616 2.33268 7.23185 2.33268 8.99996C2.33268 10.7681 3.03506 12.4638 4.2853 13.714C5.53555 14.9642 7.23124 15.6666 8.99935 15.6666ZM8.16602 11.5H9.83268V13.1666H8.16602V11.5ZM9.83268 10.1291V10.6666H8.16602V9.41663C8.16602 9.19561 8.25381 8.98365 8.41009 8.82737C8.56637 8.67109 8.77833 8.58329 8.99935 8.58329C9.23608 8.58328 9.46794 8.51604 9.66795 8.3894C9.86796 8.26276 10.0279 8.08193 10.1292 7.86795C10.2304 7.65396 10.2688 7.41562 10.2399 7.18066C10.211 6.9457 10.116 6.72378 9.96588 6.54072C9.81577 6.35766 9.61678 6.22098 9.39203 6.1466C9.16729 6.07222 8.92605 6.06318 8.69637 6.12055C8.46669 6.17791 8.25803 6.29932 8.09465 6.47064C7.93128 6.64196 7.81992 6.85615 7.77352 7.08829L6.13852 6.76079C6.23988 6.2542 6.47394 5.7836 6.81678 5.39711C7.15963 5.01063 7.59895 4.72211 8.08984 4.56106C8.58073 4.40001 9.10559 4.3722 9.61075 4.48047C10.1159 4.58875 10.5833 4.82922 10.965 5.17731C11.3468 5.52541 11.6293 5.96863 11.7836 6.46168C11.9379 6.95473 11.9586 7.47991 11.8434 7.98355C11.7282 8.48719 11.4814 8.95121 11.1281 9.32818C10.7748 9.70515 10.3278 9.98155 9.83268 10.1291Z"
    fill="currentColor" />
</svg>
