<svg width="15" height="16" viewBox="0 0 15 16" fill="none" xmlns="http://www.w3.org/2000/svg">
<path d="M5.625 5.18749H3.17813C3.78438 4.25576 4.67551 3.54491 5.71867 3.16088C6.76183 2.77686 7.90116 2.74023 8.96683 3.05645C10.0325 3.37267 10.9675 4.02482 11.6323 4.91567C12.2972 5.80653 12.6563 6.88839 12.6563 7.99999H13.5938C13.595 6.74631 13.2096 5.52275 12.4901 4.49613C11.7705 3.46952 10.7518 2.68982 9.5729 2.26336C8.39398 1.8369 7.11223 1.78444 5.9024 2.11312C4.69257 2.44179 3.61357 3.13562 2.8125 4.09999V2.37499H1.875V6.12499H5.625V5.18749ZM9.375 10.8125H11.8219C11.2156 11.7442 10.3245 12.4551 9.28134 12.8391C8.23818 13.2231 7.09885 13.2597 6.03317 12.9435C4.9675 12.6273 4.03255 11.9752 3.3677 11.0843C2.70284 10.1934 2.34368 9.11159 2.34375 7.99999H1.40625C1.40496 9.25366 1.79038 10.4772 2.50994 11.5038C3.2295 12.5305 4.24819 13.3102 5.42711 13.7366C6.60602 14.1631 7.88778 14.2155 9.09761 13.8869C10.3074 13.5582 11.3864 12.8644 12.1875 11.9V13.625H13.125V9.87499H9.375V10.8125Z" fill="currentColor"/>
</svg>
