<svg width="15" height="16" viewBox="0 0 15 16" fill="none" xmlns="http://www.w3.org/2000/svg">
<path d="M13.5929 13.4309L10.0529 9.89092C10.9036 8.86966 11.3278 7.55975 11.2373 6.23368C11.1468 4.90762 10.5485 3.6675 9.56695 2.77131C8.58539 1.87512 7.29609 1.39186 5.96729 1.42205C4.63848 1.45224 3.37247 1.99357 2.43263 2.93342C1.49278 3.87327 0.951449 5.13928 0.921256 6.46808C0.891063 7.79689 1.37433 9.08618 2.27052 10.0677C3.16671 11.0493 4.40683 11.6476 5.73289 11.7381C7.05895 11.8286 8.36886 11.4044 9.39012 10.5537L12.9301 14.0937L13.5929 13.4309ZM1.87418 6.59373C1.87418 5.75934 2.12161 4.94369 2.58517 4.24992C3.04873 3.55615 3.70761 3.01542 4.47849 2.69611C5.24936 2.3768 6.09761 2.29326 6.91597 2.45604C7.73433 2.61882 8.48604 3.02062 9.07604 3.61062C9.66604 4.20062 10.0678 4.95233 10.2306 5.77069C10.3934 6.58905 10.3099 7.4373 9.99055 8.20817C9.67125 8.97905 9.13052 9.63793 8.43675 10.1015C7.74298 10.5651 6.92732 10.8125 6.09293 10.8125C4.97443 10.8112 3.9021 10.3664 3.1112 9.57547C2.3203 8.78456 1.87543 7.71223 1.87418 6.59373Z" fill="currentColor"/>
</svg>
