<svg width="16" height="16" viewBox="0 0 16 16" fill="none" xmlns="http://www.w3.org/2000/svg">
  <path
    d="M15.8807 7.454C15.2954 6.174 13 2 8.00004 2C3.00004 2 0.704703 6.174 0.11937 7.454C0.0407951 7.62553 0.00012207 7.81199 0.00012207 8.00067C0.00012207 8.18934 0.0407951 8.3758 0.11937 8.54733C0.704703 9.826 3.00004 14 8.00004 14C13 14 15.2954 9.826 15.8807 8.546C15.9591 8.37466 15.9997 8.18843 15.9997 8C15.9997 7.81157 15.9591 7.62534 15.8807 7.454ZM8.00004 12C7.20891 12 6.43555 11.7654 5.77776 11.3259C5.11996 10.8864 4.60727 10.2616 4.30452 9.53073C4.00177 8.79983 3.92255 7.99556 4.0769 7.21964C4.23124 6.44372 4.6122 5.73098 5.17161 5.17157C5.73102 4.61216 6.44375 4.2312 7.21968 4.07686C7.9956 3.92252 8.79987 4.00173 9.53077 4.30448C10.2617 4.60723 10.8864 5.11992 11.3259 5.77772C11.7654 6.43552 12 7.20887 12 8C11.999 9.06054 11.5772 10.0773 10.8273 10.8273C10.0774 11.5772 9.06058 11.9989 8.00004 12Z"
    fill="currentColor" />
  <path
    d="M7.99967 10.6667C9.47243 10.6667 10.6663 9.4728 10.6663 8.00004C10.6663 6.52728 9.47243 5.33337 7.99967 5.33337C6.52692 5.33337 5.33301 6.52728 5.33301 8.00004C5.33301 9.4728 6.52692 10.6667 7.99967 10.6667Z"
    fill="currentColor" />
</svg>
