<svg width="17" height="16" viewBox="0 0 17 16" fill="none" xmlns="http://www.w3.org/2000/svg">
  <path
    d="M12.3334 15.1667H4.33341C3.49389 15.1656 2.68905 14.8317 2.09541 14.238C1.50178 13.6444 1.16781 12.8396 1.16675 12V4.00004C1.16781 3.16051 1.50178 2.35567 2.09541 1.76204C2.68905 1.1684 3.49389 0.834432 4.33341 0.833374H12.3334C13.1729 0.834432 13.9778 1.1684 14.5714 1.76204C15.1651 2.35567 15.499 3.16051 15.5001 4.00004V12C15.499 12.8396 15.1651 13.6444 14.5714 14.238C13.9778 14.8317 13.1729 15.1656 12.3334 15.1667ZM4.33341 1.83337C3.759 1.83408 3.20831 2.06258 2.80213 2.46876C2.39595 2.87493 2.16745 3.42562 2.16675 4.00004V12C2.16745 12.5745 2.39595 13.1251 2.80213 13.5313C3.20831 13.9375 3.759 14.166 4.33341 14.1667H12.3334C12.9078 14.166 13.4585 13.9375 13.8647 13.5313C14.2709 13.1251 14.4994 12.5745 14.5001 12V4.00004C14.4994 3.42562 14.2709 2.87493 13.8647 2.46876C13.4585 2.06258 12.9078 1.83408 12.3334 1.83337H4.33341Z"
    fill="currentColor" />
  <path
    d="M8.3335 11.8334C8.20089 11.8334 8.07371 11.7807 7.97994 11.687C7.88617 11.5932 7.8335 11.466 7.8335 11.3334V4.66675C7.8335 4.53414 7.88617 4.40696 7.97994 4.31319C8.07371 4.21943 8.20089 4.16675 8.3335 4.16675C8.4661 4.16675 8.59328 4.21943 8.68705 4.31319C8.78082 4.40696 8.8335 4.53414 8.8335 4.66675V11.3334C8.8335 11.466 8.78082 11.5932 8.68705 11.687C8.59328 11.7807 8.4661 11.8334 8.3335 11.8334Z"
    fill="currentColor" />
  <path
    d="M11.6667 8.5H5C4.86739 8.5 4.74021 8.44732 4.64645 8.35355C4.55268 8.25978 4.5 8.13261 4.5 8C4.5 7.86739 4.55268 7.74022 4.64645 7.64645C4.74021 7.55268 4.86739 7.5 5 7.5H11.6667C11.7993 7.5 11.9265 7.55268 12.0202 7.64645C12.114 7.74022 12.1667 7.86739 12.1667 8C12.1667 8.13261 12.114 8.25978 12.0202 8.35355C11.9265 8.44732 11.7993 8.5 11.6667 8.5Z"
    fill="currentColor" />
</svg>
