<svg width="16" height="16" viewBox="0 0 16 16" fill="none" xmlns="http://www.w3.org/2000/svg">
  <path
    d="M15.0624 0.937688C14.4577 0.333 13.6538 0 12.7987 0C11.9436 0 11.1397 0.333 10.5351 0.937656L1.5883 9.88441C1.51218 9.96053 1.45699 10.055 1.42814 10.1587L0.0228938 15.2074C-0.0376999 15.4252 0.0239876 15.6587 0.184238 15.8181C0.302988 15.9362 0.462113 16 0.62505 16C0.682019 16 0.739456 15.9922 0.795769 15.9762L5.84443 14.5421C6.05746 14.4816 6.22255 14.3129 6.27843 14.0986C6.3343 13.8843 6.27261 13.6565 6.11627 13.4996L2.93339 10.3071L8.56552 4.67497L11.3211 7.43059L7.43027 11.3109C7.18586 11.5546 7.1853 11.9503 7.42905 12.1947C7.6728 12.4392 8.06852 12.4397 8.31293 12.196L15.0623 5.46497C15.667 4.86031 16 4.05641 16 3.20131C16 2.34622 15.667 1.54228 15.0624 0.937688ZM4.48108 13.6299L1.52583 14.4694L2.35349 11.4959L4.48108 13.6299ZM12.2062 6.54794L9.44939 3.79109L10.3468 2.89372L13.1048 5.65178L12.2062 6.54794ZM14.1791 4.58047L13.9899 4.76912L11.2306 2.00988L11.419 1.82156C11.7875 1.45297 12.2775 1.25 12.7987 1.25C13.3199 1.25 13.8099 1.45297 14.1785 1.82156C14.547 2.19009 14.75 2.68012 14.75 3.20131C14.75 3.72253 14.547 4.2125 14.1791 4.58047Z"
    fill="currentColor" />
</svg>
