<svg xmlns="http://www.w3.org/2000/svg" xmlns:xlink="http://www.w3.org/1999/xlink"><symbol id="icon-add" viewBox="0 0 17 16"><g fill="none">
  <path d="M12.3334 15.1667H4.33341C3.49389 15.1656 2.68905 14.8317 2.09541 14.238C1.50178 13.6444 1.16781 12.8396 1.16675 12V4.00004C1.16781 3.16051 1.50178 2.35567 2.09541 1.76204C2.68905 1.1684 3.49389 0.834432 4.33341 0.833374H12.3334C13.1729 0.834432 13.9778 1.1684 14.5714 1.76204C15.1651 2.35567 15.499 3.16051 15.5001 4.00004V12C15.499 12.8396 15.1651 13.6444 14.5714 14.238C13.9778 14.8317 13.1729 15.1656 12.3334 15.1667ZM4.33341 1.83337C3.759 1.83408 3.20831 2.06258 2.80213 2.46876C2.39595 2.87493 2.16745 3.42562 2.16675 4.00004V12C2.16745 12.5745 2.39595 13.1251 2.80213 13.5313C3.20831 13.9375 3.759 14.166 4.33341 14.1667H12.3334C12.9078 14.166 13.4585 13.9375 13.8647 13.5313C14.2709 13.1251 14.4994 12.5745 14.5001 12V4.00004C14.4994 3.42562 14.2709 2.87493 13.8647 2.46876C13.4585 2.06258 12.9078 1.83408 12.3334 1.83337H4.33341Z" fill="currentColor"/>
  <path d="M8.3335 11.8334C8.20089 11.8334 8.07371 11.7807 7.97994 11.687C7.88617 11.5932 7.8335 11.466 7.8335 11.3334V4.66675C7.8335 4.53414 7.88617 4.40696 7.97994 4.31319C8.07371 4.21943 8.20089 4.16675 8.3335 4.16675C8.4661 4.16675 8.59328 4.21943 8.68705 4.31319C8.78082 4.40696 8.8335 4.53414 8.8335 4.66675V11.3334C8.8335 11.466 8.78082 11.5932 8.68705 11.687C8.59328 11.7807 8.4661 11.8334 8.3335 11.8334Z" fill="currentColor"/>
  <path d="M11.6667 8.5H5C4.86739 8.5 4.74021 8.44732 4.64645 8.35355C4.55268 8.25978 4.5 8.13261 4.5 8C4.5 7.86739 4.55268 7.74022 4.64645 7.64645C4.74021 7.55268 4.86739 7.5 5 7.5H11.6667C11.7993 7.5 11.9265 7.55268 12.0202 7.64645C12.114 7.74022 12.1667 7.86739 12.1667 8C12.1667 8.13261 12.114 8.25978 12.0202 8.35355C11.9265 8.44732 11.7993 8.5 11.6667 8.5Z" fill="currentColor"/>
</g></symbol><symbol id="icon-attention" viewBox="0 0 16 16"><g fill="none">
  <rect width="16" height="16" fill="white" fill-opacity="0.01"/>
  <path d="M8.98164 1.56516C8.88265 1.39272 8.73992 1.24946 8.56785 1.14983C8.39578 1.0502 8.20047 0.997742 8.00164 0.997742C7.80281 0.997742 7.6075 1.0502 7.43543 1.14983C7.26337 1.24946 7.12063 1.39272 7.02164 1.56516L0.164641 13.2322C-0.292359 14.0102 0.255641 14.9992 1.14464 14.9992H14.8576C15.7466 14.9992 16.2956 14.0092 15.8376 13.2322L8.98164 1.56516ZM7.99964 4.99916C8.53464 4.99916 8.95364 5.46116 8.89964 5.99416L8.54964 9.50116C8.53788 9.63893 8.47484 9.76727 8.373 9.86079C8.27115 9.95432 8.13791 10.0062 7.99964 10.0062C7.86137 10.0062 7.72813 9.95432 7.62629 9.86079C7.52444 9.76727 7.4614 9.63893 7.44964 9.50116L7.09964 5.99416C7.08707 5.86839 7.10099 5.74139 7.14049 5.62133C7.17999 5.50126 7.2442 5.39081 7.32898 5.29707C7.41377 5.20333 7.51725 5.1284 7.63276 5.07709C7.74827 5.02578 7.87325 4.99923 7.99964 4.99916ZM8.00164 10.9992C8.26686 10.9992 8.52121 11.1045 8.70875 11.2921C8.89628 11.4796 9.00164 11.7339 9.00164 11.9992C9.00164 12.2644 8.89628 12.5187 8.70875 12.7063C8.52121 12.8938 8.26686 12.9992 8.00164 12.9992C7.73642 12.9992 7.48207 12.8938 7.29453 12.7063C7.107 12.5187 7.00164 12.2644 7.00164 11.9992C7.00164 11.7339 7.107 11.4796 7.29453 11.2921C7.48207 11.1045 7.73642 10.9992 8.00164 10.9992Z" fill="currentColor"/>
</g></symbol><symbol id="icon-close" viewBox="0 0 24 24"><g fill="none">
<path fill-rule="evenodd" clip-rule="evenodd" d="M18.7071 5.29289C19.0976 5.68342 19.0976 6.31658 18.7071 6.70711L6.70711 18.7071C6.31658 19.0976 5.68342 19.0976 5.29289 18.7071C4.90237 18.3166 4.90237 17.6834 5.29289 17.2929L17.2929 5.29289C17.6834 4.90237 18.3166 4.90237 18.7071 5.29289Z" fill="currentColor"/>
<path fill-rule="evenodd" clip-rule="evenodd" d="M5.29289 5.29289C5.68342 4.90237 6.31658 4.90237 6.70711 5.29289L18.7071 17.2929C19.0976 17.6834 19.0976 18.3166 18.7071 18.7071C18.3166 19.0976 17.6834 19.0976 17.2929 18.7071L5.29289 6.70711C4.90237 6.31658 4.90237 5.68342 5.29289 5.29289Z" fill="currentColor"/>
</g></symbol><symbol id="icon-download" viewBox="0 0 16 16"><g fill="none">
  <path d="M16 16H0V14.6667H16V16ZM9.42667 12.74L15.9733 6H11.34V0H4.66667V6H0.0466667L6.58 12.74C6.96 13.1267 7.46 13.3333 7.99333 13.3333C8.52667 13.3333 9.03333 13.1267 9.41333 12.74H9.42667Z" fill="currentColor"/>

</g></symbol><symbol id="icon-edit" viewBox="0 0 16 16"><g fill="none">
  <path d="M15.0624 0.937688C14.4577 0.333 13.6538 0 12.7987 0C11.9436 0 11.1397 0.333 10.5351 0.937656L1.5883 9.88441C1.51218 9.96053 1.45699 10.055 1.42814 10.1587L0.0228938 15.2074C-0.0376999 15.4252 0.0239876 15.6587 0.184238 15.8181C0.302988 15.9362 0.462113 16 0.62505 16C0.682019 16 0.739456 15.9922 0.795769 15.9762L5.84443 14.5421C6.05746 14.4816 6.22255 14.3129 6.27843 14.0986C6.3343 13.8843 6.27261 13.6565 6.11627 13.4996L2.93339 10.3071L8.56552 4.67497L11.3211 7.43059L7.43027 11.3109C7.18586 11.5546 7.1853 11.9503 7.42905 12.1947C7.6728 12.4392 8.06852 12.4397 8.31293 12.196L15.0623 5.46497C15.667 4.86031 16 4.05641 16 3.20131C16 2.34622 15.667 1.54228 15.0624 0.937688ZM4.48108 13.6299L1.52583 14.4694L2.35349 11.4959L4.48108 13.6299ZM12.2062 6.54794L9.44939 3.79109L10.3468 2.89372L13.1048 5.65178L12.2062 6.54794ZM14.1791 4.58047L13.9899 4.76912L11.2306 2.00988L11.419 1.82156C11.7875 1.45297 12.2775 1.25 12.7987 1.25C13.3199 1.25 13.8099 1.45297 14.1785 1.82156C14.547 2.19009 14.75 2.68012 14.75 3.20131C14.75 3.72253 14.547 4.2125 14.1791 4.58047Z" fill="currentColor"/>
</g></symbol><symbol id="icon-eye" viewBox="0 0 16 16"><g fill="none">
  <path d="M15.8807 7.454C15.2954 6.174 13 2 8.00004 2C3.00004 2 0.704703 6.174 0.11937 7.454C0.0407951 7.62553 0.00012207 7.81199 0.00012207 8.00067C0.00012207 8.18934 0.0407951 8.3758 0.11937 8.54733C0.704703 9.826 3.00004 14 8.00004 14C13 14 15.2954 9.826 15.8807 8.546C15.9591 8.37466 15.9997 8.18843 15.9997 8C15.9997 7.81157 15.9591 7.62534 15.8807 7.454ZM8.00004 12C7.20891 12 6.43555 11.7654 5.77776 11.3259C5.11996 10.8864 4.60727 10.2616 4.30452 9.53073C4.00177 8.79983 3.92255 7.99556 4.0769 7.21964C4.23124 6.44372 4.6122 5.73098 5.17161 5.17157C5.73102 4.61216 6.44375 4.2312 7.21968 4.07686C7.9956 3.92252 8.79987 4.00173 9.53077 4.30448C10.2617 4.60723 10.8864 5.11992 11.3259 5.77772C11.7654 6.43552 12 7.20887 12 8C11.999 9.06054 11.5772 10.0773 10.8273 10.8273C10.0774 11.5772 9.06058 11.9989 8.00004 12Z" fill="currentColor"/>
  <path d="M7.99967 10.6667C9.47243 10.6667 10.6663 9.4728 10.6663 8.00004C10.6663 6.52728 9.47243 5.33337 7.99967 5.33337C6.52692 5.33337 5.33301 6.52728 5.33301 8.00004C5.33301 9.4728 6.52692 10.6667 7.99967 10.6667Z" fill="currentColor"/>
</g></symbol><symbol id="icon-file-doc" viewBox="0 0 24 24"><g fill="none">
  <path d="M6 0C5.175 0 4.5 0.675 4.5 1.5V22.5C4.5 23.325 5.175 24 6 24H21C21.825 24 22.5 23.325 22.5 22.5V6L16.5 0H6Z" fill="#E2E5E7"/>
  <path d="M18 6H22.5L16.5 0V4.5C16.5 5.325 17.175 6 18 6Z" fill="#B0B7BD"/>
  <path d="M22.5 10.5L18 6H22.5V10.5Z" fill="#CAD1D8"/>
  <path d="M19.5 19.5C19.5 19.9125 19.1625 20.25 18.75 20.25H2.25C1.8375 20.25 1.5 19.9125 1.5 19.5V12C1.5 11.5875 1.8375 11.25 2.25 11.25H18.75C19.1625 11.25 19.5 11.5875 19.5 12V19.5Z" fill="#50BEE8"/>
  <path d="M4.33929 17.9999C4.14129 17.9999 3.92529 17.8912 3.92529 17.6279V14.2222C3.92529 14.0062 4.14129 13.8502 4.33929 13.8502H5.71254C8.45304 13.8502 8.39229 17.9999 5.76579 17.9999H4.33929ZM4.71729 14.5814V17.2679H5.71254C7.33179 17.2679 7.40304 14.5814 5.71254 14.5814H4.71729Z" fill="white"/>
  <path d="M10.6875 18.0599C9.57827 18.1079 8.42627 17.3699 8.42627 15.9007C8.42627 14.4254 9.57752 13.7002 10.6875 13.7002C11.7368 13.7534 12.834 14.4794 12.834 15.9007C12.834 17.3227 11.7368 18.0599 10.6875 18.0599ZM10.6215 14.4802C9.94952 14.4802 9.21827 14.9542 9.21827 15.9014C9.21827 16.8434 9.95027 17.3234 10.6215 17.3234C11.3115 17.3234 12.0488 16.8434 12.0488 15.9014C12.0488 14.9534 11.3115 14.4802 10.6215 14.4802Z" fill="white"/>
  <path d="M13.5396 15.8947C13.5396 14.7374 14.2656 13.7422 15.6448 13.7422C16.1668 13.7422 16.5808 13.8982 17.0181 14.2762C17.1801 14.4254 17.1981 14.6894 17.0361 14.8574C16.8741 15.0007 16.6281 14.9834 16.4841 14.8394C16.2388 14.5814 15.9868 14.5102 15.6448 14.5102C14.7216 14.5102 14.2783 15.1642 14.2783 15.8954C14.2783 16.6394 14.7156 17.3227 15.6448 17.3227C15.9868 17.3227 16.3048 17.1839 16.5808 16.9387C16.7661 16.7947 17.0241 16.8659 17.1321 17.0107C17.2281 17.1427 17.2753 17.3647 17.0661 17.5739C16.6461 17.9647 16.1428 18.0427 15.6441 18.0427C14.1936 18.0427 13.5396 17.0519 13.5396 15.8947Z" fill="white"/>
  <path d="M18.75 20.25H4.5V21H18.75C19.1625 21 19.5 20.6625 19.5 20.25V19.5C19.5 19.9125 19.1625 20.25 18.75 20.25Z" fill="#CAD1D8"/>
</g></symbol><symbol id="icon-file-jpg" viewBox="0 0 32 32"><g fill="none">
  <path d="M8 0.00012207C6.9 0.00012207 6 0.900122 6 2.00012V30.0001C6 31.1001 6.9 32.0001 8 32.0001H28C29.1 32.0001 30 31.1001 30 30.0001V8.00012L22 0.00012207H8Z" fill="#E2E5E7"/>
  <path d="M24 8.00012H30L22 0.00012207V6.00012C22 7.10012 22.9 8.00012 24 8.00012Z" fill="#B0B7BD"/>
  <path d="M30 14.0001L24 8.00012H30V14.0001Z" fill="#CAD1D8"/>
  <path d="M26 26.0001C26 26.5501 25.55 27.0001 25 27.0001H3C2.45 27.0001 2 26.5501 2 26.0001V16.0001C2 15.4501 2.45 15.0001 3 15.0001H25C25.55 15.0001 26 15.4501 26 16.0001V26.0001Z" fill="#71BC78"/>
  <path d="M8.87306 18.9471C8.87306 18.2751 9.92906 18.2751 9.92906 18.9471V22.1051C9.92906 23.3611 9.32906 24.1211 7.94606 24.1211C7.26606 24.1211 6.69906 23.9361 6.20306 23.2971C5.79506 22.8091 6.56306 22.1061 6.97906 22.6171C7.31506 23.0331 7.67506 23.1291 8.02606 23.1131C8.47306 23.0971 8.86606 22.8961 8.87406 22.1051V18.9471H8.87306Z" fill="white"/>
  <path d="M11.334 18.9471C11.334 18.6831 11.542 18.3951 11.878 18.3951H13.725C14.765 18.3951 15.701 19.0911 15.701 20.4251C15.701 21.6891 14.765 22.3931 13.725 22.3931H12.39V23.4491C12.39 23.8011 12.166 24.0001 11.878 24.0001C11.614 24.0001 11.334 23.8011 11.334 23.4491V18.9471ZM12.39 19.4021V21.3941H13.725C14.261 21.3941 14.685 20.9211 14.685 20.4251C14.685 19.8661 14.261 19.4021 13.725 19.4021H12.39Z" fill="white"/>
  <path d="M21.411 23.3851C20.843 23.8571 20.147 24.0571 19.444 24.0571C17.764 24.0571 16.573 23.0981 16.573 21.1941C16.573 19.5801 17.829 18.3251 19.515 18.3251C20.147 18.3251 20.842 18.5401 21.338 19.0281C21.825 19.5071 21.122 20.2191 20.643 19.7961C20.347 19.5081 19.931 19.2921 19.515 19.2921C18.548 19.2921 17.613 20.0671 17.613 21.1941C17.613 22.3781 18.396 23.0981 19.444 23.0981C19.931 23.0981 20.347 22.9531 20.643 22.7381V21.7551H19.444C18.732 21.7551 18.804 20.7791 19.444 20.7791H21.043C21.339 20.7791 21.61 21.0031 21.61 21.2511V22.9541C21.61 23.0981 21.547 23.2321 21.411 23.3851Z" fill="white"/>
  <path d="M25 27.0001H6V28.0001H25C25.55 28.0001 26 27.5501 26 27.0001V26.0001C26 26.5501 25.55 27.0001 25 27.0001Z" fill="#CAD1D8"/>
</g></symbol><symbol id="icon-file-pdf" viewBox="0 0 32 32"><g fill="none">
  <path d="M8 0.00012207C6.9 0.00012207 6 0.900122 6 2.00012V30.0001C6 31.1001 6.9 32.0001 8 32.0001H28C29.1 32.0001 30 31.1001 30 30.0001V8.00012L22 0.00012207H8Z" fill="#E2E5E7"/>
  <path d="M24 8.00012H30L22 0.00012207V6.00012C22 7.10012 22.9 8.00012 24 8.00012Z" fill="#B0B7BD"/>
  <path d="M30 14.0001L24 8.00012H30V14.0001Z" fill="#CAD1D8"/>
  <path d="M26 26.0001C26 26.5501 25.55 27.0001 25 27.0001H3C2.45 27.0001 2 26.5501 2 26.0001V16.0001C2 15.4501 2.45 15.0001 3 15.0001H25C25.55 15.0001 26 15.4501 26 16.0001V26.0001Z" fill="#F15642"/>
  <path d="M6.35889 18.9471C6.35889 18.6831 6.56689 18.3951 6.90189 18.3951H8.74889C9.78889 18.3951 10.7249 19.0911 10.7249 20.4251C10.7249 21.6891 9.78889 22.3931 8.74889 22.3931H7.41389V23.4491C7.41389 23.8011 7.18989 24.0001 6.90189 24.0001C6.63789 24.0001 6.35889 23.8011 6.35889 23.4491V18.9471ZM7.41389 19.4021V21.3941H8.74889C9.28489 21.3941 9.70889 20.9211 9.70889 20.4251C9.70889 19.8661 9.28489 19.4021 8.74889 19.4021H7.41389Z" fill="white"/>
  <path d="M12.2908 24.0001C12.0268 24.0001 11.7388 23.8561 11.7388 23.5051V18.9631C11.7388 18.6761 12.0268 18.4671 12.2908 18.4671H14.1218C17.7758 18.4671 17.6958 24.0001 14.1938 24.0001H12.2908ZM12.7948 19.4431V23.0251H14.1218C16.2808 23.0251 16.3768 19.4431 14.1218 19.4431H12.7948Z" fill="white"/>
  <path d="M18.9918 19.5071V20.7781H21.0308C21.3188 20.7781 21.6068 21.0661 21.6068 21.3451C21.6068 21.6091 21.3188 21.8251 21.0308 21.8251H18.9918V23.5041C18.9918 23.7841 18.7928 23.9991 18.5128 23.9991C18.1608 23.9991 17.9458 23.7841 17.9458 23.5041V18.9621C17.9458 18.6751 18.1618 18.4661 18.5128 18.4661H21.3198C21.6718 18.4661 21.8798 18.6751 21.8798 18.9621C21.8798 19.2181 21.6718 19.5061 21.3198 19.5061H18.9918V19.5071Z" fill="white"/>
  <path d="M25 27.0001H6V28.0001H25C25.55 28.0001 26 27.5501 26 27.0001V26.0001C26 26.5501 25.55 27.0001 25 27.0001Z" fill="#CAD1D8"/>
</g></symbol><symbol id="icon-letter" viewBox="0 0 32 32"><g fill="none">
  <path d="M31.2268 25.4668C30.5938 26.2268 29.6559 26.6664 28.6668 26.6668H3.33343C2.34431 26.6664 1.40644 26.2268 0.773438 25.4668L13.0001 15.2802L14.2668 16.1468C15.3102 16.8668 16.69 16.8668 17.7335 16.1468L19.0002 15.2802L31.2268 25.4668Z" fill="#1E88E5"/>
  <path d="M31.4135 6.78685L19.0002 15.2802L17.7335 16.1468C16.6901 16.8668 15.3103 16.8668 14.2668 16.1468L13.0001 15.2802L0.586914 6.77348C1.21154 5.87279 2.23747 5.33492 3.3336 5.33348H28.6669C29.7679 5.32767 30.7989 5.87317 31.4135 6.78685Z" fill="#64B5F6"/>
  <path d="M13 15.2802L0.77337 25.4668C0.272934 24.8687 -0.000878248 24.1134 5.92503e-05 23.3335V8.66685C-0.00400324 7.99042 0.200934 7.32917 0.586746 6.77354L13 15.2802Z" fill="#2196F3"/>
  <path d="M32 8.66685V23.3335C32.0008 24.1134 31.7271 24.8687 31.2267 25.4668L19 15.2801L31.4133 6.78685C31.7972 7.33847 32.002 7.99479 32 8.66685Z" fill="#2196F3"/>
</g></symbol><symbol id="icon-logout" viewBox="0 0 17 18"><g fill="none">
  <path d="M11.9863 13.6484C11.6196 13.6484 11.3223 13.9457 11.3223 14.3125V16.1719H1.82617V1.82812H11.3223V3.6875C11.3223 4.05426 11.6196 4.35156 11.9863 4.35156C12.3531 4.35156 12.6504 4.05426 12.6504 3.6875V1.16406C12.6504 0.797301 12.3531 0.5 11.9863 0.5H1.16211C0.795348 0.5 0.498047 0.797301 0.498047 1.16406V16.8359C0.498047 17.2027 0.795348 17.5 1.16211 17.5H11.9863C12.3531 17.5 12.6504 17.2027 12.6504 16.8359V14.3125C12.6504 13.9457 12.3531 13.6484 11.9863 13.6484Z" fill="#ED2B1B"/>
  <path d="M16.3074 8.53047L14.5231 6.74614C14.2638 6.48679 13.8433 6.48682 13.584 6.74614C13.3246 7.00545 13.3246 7.42594 13.584 7.68529L14.2347 8.33597L8.73364 8.33593C8.36691 8.33593 8.06958 8.63323 8.06958 9C8.06958 9.36676 8.36688 9.66406 8.73364 9.66406L14.2347 9.66409L13.584 10.3148C13.3246 10.5741 13.3246 10.9946 13.584 11.254C13.8433 11.5133 14.2638 11.5132 14.5231 11.2539L16.3074 9.46959C16.3075 9.46952 16.3076 9.46942 16.3076 9.46942C16.4412 9.33571 16.4971 9.18115 16.5019 9.00003C16.5019 8.821 16.4259 8.64887 16.3074 8.53047Z" fill="#ED2B1B"/>
</g></symbol><symbol id="icon-message" viewBox="0 0 24 24"><g fill="none">
  <path fill-rule="evenodd" clip-rule="evenodd" d="M9.43431 3.23444C9.74673 2.92202 10.2533 2.92202 10.5657 3.23444L22.1657 14.8344C22.4781 15.1469 22.4781 15.6534 22.1657 15.9658L18.7314 19.4001H23.2C23.6418 19.4001 24 19.7583 24 20.2001C24 20.642 23.6418 21.0001 23.2 21.0001H0.8C0.358172 21.0001 0 20.642 0 20.2001C0 19.7583 0.358172 19.4001 0.8 19.4001H10.0686L2.23431 11.5658C1.9219 11.2534 1.9219 10.7469 2.23431 10.4344L9.43431 3.23444ZM19.8705 15.9983L16.4686 19.4001H12.3314L3.93137 11.0001L9.44943 5.48207L10.8094 14.3217C10.864 14.6766 11.1483 14.9516 11.5048 14.9944L19.8705 15.9983ZM19.3987 14.3302L12.2984 13.4782L11.1624 6.09387L19.3987 14.3302Z" fill="currentColor"/>
</g></symbol><symbol id="icon-pause" viewBox="0 0 17 19"><g fill="none">
<path d="M6.70833 2.39593V15.8126C6.70845 16.3649 6.51773 16.9003 6.16846 17.3282C5.81919 17.756 5.33282 18.0501 4.79167 18.1605C4.63416 18.1939 4.47349 18.2099 4.3125 18.2084H2.39583C1.76042 18.2084 1.15103 17.956 0.701723 17.5067C0.252417 17.0574 0 16.448 0 15.8126V2.39593C0 1.76051 0.252417 1.15113 0.701723 0.701819C1.15103 0.252513 1.76042 9.59775e-05 2.39583 9.59775e-05H4.3125C4.47349 -0.00140317 4.63416 0.014664 4.79167 0.0480126C5.33282 0.158475 5.81919 0.452516 6.16846 0.880372C6.51773 1.30823 6.70845 1.84362 6.70833 2.39593Z" fill="#CC0000"/>
<path d="M16.2918 2.39593V15.8126C16.2919 16.3649 16.1012 16.9003 15.752 17.3282C15.4027 17.756 14.9163 18.0501 14.3752 18.1605C14.2177 18.1939 14.057 18.2099 13.896 18.2084H11.9793C11.3439 18.2084 10.7345 17.956 10.2852 17.5067C9.83591 17.0574 9.5835 16.448 9.5835 15.8126V2.39593C9.5835 1.76051 9.83591 1.15113 10.2852 0.701819C10.7345 0.252513 11.3439 9.59775e-05 11.9793 9.59775e-05H13.896C14.057 -0.00140317 14.2177 0.014664 14.3752 0.0480126C14.9163 0.158475 15.4027 0.452516 15.752 0.880372C16.1012 1.30823 16.2919 1.84362 16.2918 2.39593Z" fill="#CC0000"/>
<path d="M0 9.10426H6.70833V15.8126C6.70845 16.3649 6.51773 16.9003 6.16846 17.3282C5.81919 17.756 5.33282 18.0501 4.79167 18.1605C4.63416 18.1939 4.47349 18.2099 4.3125 18.2084H2.39583C1.76042 18.2084 1.15103 17.956 0.701723 17.5067C0.252417 17.0574 0 16.448 0 15.8126V9.10426Z" fill="#A30000"/>
<path d="M16.2918 9.10426V15.8126C16.2919 16.3649 16.1012 16.9003 15.752 17.3282C15.4027 17.756 14.9163 18.0501 14.3752 18.1605C14.2177 18.1939 14.057 18.2099 13.896 18.2084H11.9793C11.3439 18.2084 10.7345 17.956 10.2852 17.5067C9.83591 17.0574 9.5835 16.448 9.5835 15.8126V9.10426H16.2918Z" fill="#A30000"/>
</g></symbol><symbol id="icon-play" viewBox="0 0 16 18"><g fill="none">
<path fill-rule="evenodd" clip-rule="evenodd" d="M15.3886 8.26225L1.27833 0.115488C1.14928 0.0403679 1.00272 0.000537609 0.853398 0H0.850937C0.701533 0.000593386 0.554908 0.0404441 0.425757 0.115559C0.295695 0.189733 0.187713 0.297181 0.112894 0.426875C0.038076 0.556568 -0.000883303 0.703835 1.51966e-05 0.853559V17.1469C-0.000575724 17.2968 0.0384296 17.4441 0.113082 17.574C0.187734 17.7039 0.295383 17.8117 0.42513 17.8866C0.554876 17.9616 0.702113 18.0009 0.851934 18.0006C1.00175 18.0003 1.14884 17.9604 1.2783 17.885L15.3886 9.73821C15.5182 9.66343 15.6257 9.55585 15.7005 9.42631C15.7753 9.29677 15.8147 9.14982 15.8147 9.00023C15.8147 8.85064 15.7753 8.70369 15.7005 8.57415C15.6257 8.4446 15.5182 8.33703 15.3886 8.26225Z" fill="#CC0000"/>
<path fill-rule="evenodd" clip-rule="evenodd" d="M0.0244207 9.06236V17.1472C0.0238298 17.297 0.0628351 17.4444 0.137488 17.5743C0.21214 17.7042 0.319789 17.812 0.449535 17.8869C0.579282 17.9619 0.726519 18.0012 0.876339 18.0009C1.02616 18.0006 1.17324 17.9607 1.3027 17.8853L15.413 9.7385C15.5426 9.66372 15.6501 9.55615 15.7249 9.4266C15.7894 9.31497 15.8276 9.1904 15.8369 9.06236H0.0244207Z" fill="#A30000"/>
</g></symbol><symbol id="icon-printer" viewBox="0 0 32 32"><g fill="none">
<path fill-rule="evenodd" clip-rule="evenodd" d="M9.99707 1.99625C8.90637 1.99625 7.99707 2.90555 7.99707 3.99625V11.9962C7.99707 13.0869 8.90637 13.9962 9.99707 13.9962H21.9971C23.0878 13.9962 23.9971 13.0869 23.9971 11.9962V3.99625C23.9971 2.90555 23.0878 1.99625 21.9971 1.99625H9.99707Z" fill="#41A5EE"/>
<path fill-rule="evenodd" clip-rule="evenodd" d="M3.99707 11.9962C2.90637 11.9962 1.99707 12.9055 1.99707 13.9962V24.9962C1.99707 26.0869 2.90637 26.9962 3.99707 26.9962H27.9971C29.0878 26.9962 29.9971 26.0869 29.9971 24.9962V13.9962C29.9971 12.9055 29.0878 11.9962 27.9971 11.9962H3.99707Z" fill="#0077CC"/>
<path fill-rule="evenodd" clip-rule="evenodd" d="M7.99707 20.9962C7.44479 20.9962 6.99707 21.444 6.99707 21.9962C6.99707 22.5485 7.44479 22.9962 7.99707 22.9962V27.9962C7.99707 29.0869 8.90637 29.9962 9.99707 29.9962H21.9971C23.0878 29.9962 23.9971 29.0869 23.9971 27.9962V22.9962C24.5494 22.9962 24.9971 22.5485 24.9971 21.9962C24.9971 21.444 24.5494 20.9962 23.9971 20.9962C18.6637 20.9962 13.3304 20.9962 7.99707 20.9962Z" fill="#41A5EE"/>
<path fill-rule="evenodd" clip-rule="evenodd" d="M6.99707 15.9962C6.73185 15.9962 6.47751 16.1016 6.28998 16.2891C6.10244 16.4767 5.99707 16.731 5.99707 16.9962C5.99707 17.2615 6.10244 17.5158 6.28998 17.7033C6.47751 17.8909 6.73185 17.9962 6.99707 17.9962C7.26229 17.9962 7.51666 17.8909 7.70419 17.7033C7.89173 17.5158 7.99707 17.2615 7.99707 16.9962C7.99707 16.731 7.89173 16.4767 7.70419 16.2891C7.51666 16.1016 7.26229 15.9962 6.99707 15.9962Z" fill="#D7EEFE"/>
<path fill-rule="evenodd" clip-rule="evenodd" d="M8.99707 15.9962C8.73185 15.9962 8.47751 16.1016 8.28998 16.2891C8.10244 16.4767 7.99707 16.731 7.99707 16.9962C7.99707 17.2615 8.10244 17.5158 8.28998 17.7033C8.47751 17.8909 8.73185 17.9962 8.99707 17.9962C9.26229 17.9962 9.51666 17.8909 9.70419 17.7033C9.89173 17.5158 9.99707 17.2615 9.99707 16.9962C9.99707 16.731 9.89173 16.4767 9.70419 16.2891C9.51666 16.1016 9.26229 15.9962 8.99707 15.9962Z" fill="#D7EEFE"/>
<path fill-rule="evenodd" clip-rule="evenodd" d="M10.9971 15.9962C10.7319 15.9962 10.4775 16.1016 10.29 16.2891C10.1024 16.4767 9.99707 16.731 9.99707 16.9962C9.99707 17.2615 10.1024 17.5158 10.29 17.7033C10.4775 17.8909 10.7319 17.9962 10.9971 17.9962C11.2623 17.9962 11.5167 17.8909 11.7042 17.7033C11.8917 17.5158 11.9971 17.2615 11.9971 16.9962C11.9971 16.731 11.8917 16.4767 11.7042 16.2891C11.5167 16.1016 11.2623 15.9962 10.9971 15.9962Z" fill="#D7EEFE"/>
<path fill-rule="evenodd" clip-rule="evenodd" d="M12.9971 4.99625C12.7319 4.99625 12.4775 5.10159 12.29 5.28912C12.1024 5.47666 11.9971 5.73103 11.9971 5.99625C11.9971 6.26146 12.1024 6.5158 12.29 6.70334C12.4775 6.89087 12.7319 6.99625 12.9971 6.99625H18.9971C19.2623 6.99625 19.5167 6.89087 19.7042 6.70334C19.8917 6.5158 19.9971 6.26146 19.9971 5.99625C19.9971 5.73103 19.8917 5.47666 19.7042 5.28912C19.5167 5.10159 19.2623 4.99625 18.9971 4.99625H12.9971Z" fill="#D7EEFE"/>
<path fill-rule="evenodd" clip-rule="evenodd" d="M12.9971 7.99625C12.7319 7.99625 12.4775 8.10159 12.29 8.28912C12.1024 8.47666 11.9971 8.73103 11.9971 8.99625C11.9971 9.26146 12.1024 9.5158 12.29 9.70334C12.4775 9.89087 12.7319 9.99625 12.9971 9.99625H18.9971C19.2623 9.99625 19.5167 9.89087 19.7042 9.70334C19.8917 9.5158 19.9971 9.26146 19.9971 8.99625C19.9971 8.73103 19.8917 8.47666 19.7042 8.28912C19.5167 8.10159 19.2623 7.99625 18.9971 7.99625H12.9971Z" fill="#D7EEFE"/>
</g></symbol><symbol id="icon-question" viewBox="0 0 18 18"><g fill="none">
  <path d="M8.99935 17.3333C4.39685 17.3333 0.666016 13.6025 0.666016 8.99996C0.666016 4.39746 4.39685 0.666626 8.99935 0.666626C13.6018 0.666626 17.3327 4.39746 17.3327 8.99996C17.3327 13.6025 13.6018 17.3333 8.99935 17.3333ZM8.99935 15.6666C10.7675 15.6666 12.4632 14.9642 13.7134 13.714C14.9636 12.4638 15.666 10.7681 15.666 8.99996C15.666 7.23185 14.9636 5.53616 13.7134 4.28591C12.4632 3.03567 10.7675 2.33329 8.99935 2.33329C7.23124 2.33329 5.53555 3.03567 4.2853 4.28591C3.03506 5.53616 2.33268 7.23185 2.33268 8.99996C2.33268 10.7681 3.03506 12.4638 4.2853 13.714C5.53555 14.9642 7.23124 15.6666 8.99935 15.6666ZM8.16602 11.5H9.83268V13.1666H8.16602V11.5ZM9.83268 10.1291V10.6666H8.16602V9.41663C8.16602 9.19561 8.25381 8.98365 8.41009 8.82737C8.56637 8.67109 8.77833 8.58329 8.99935 8.58329C9.23608 8.58328 9.46794 8.51604 9.66795 8.3894C9.86796 8.26276 10.0279 8.08193 10.1292 7.86795C10.2304 7.65396 10.2688 7.41562 10.2399 7.18066C10.211 6.9457 10.116 6.72378 9.96588 6.54072C9.81577 6.35766 9.61678 6.22098 9.39203 6.1466C9.16729 6.07222 8.92605 6.06318 8.69637 6.12055C8.46669 6.17791 8.25803 6.29932 8.09465 6.47064C7.93128 6.64196 7.81992 6.85615 7.77352 7.08829L6.13852 6.76079C6.23988 6.2542 6.47394 5.7836 6.81678 5.39711C7.15963 5.01063 7.59895 4.72211 8.08984 4.56106C8.58073 4.40001 9.10559 4.3722 9.61075 4.48047C10.1159 4.58875 10.5833 4.82922 10.965 5.17731C11.3468 5.52541 11.6293 5.96863 11.7836 6.46168C11.9379 6.95473 11.9586 7.47991 11.8434 7.98355C11.7282 8.48719 11.4814 8.95121 11.1281 9.32818C10.7748 9.70515 10.3278 9.98155 9.83268 10.1291Z" fill="currentColor"/>
</g></symbol></svg>