<?xml version="1.0" encoding="utf-8"?><svg viewBox="0 0 32 32" xmlns="http://www.w3.org/2000/svg" xmlns:xlink="http://www.w3.org/1999/xlink"><style>:root>svg{display:none}:root>svg:target{display:block}</style><svg fill="none" viewBox="0 0 13 9" id="arrow" xmlns="http://www.w3.org/2000/svg"><path d="M11.645 8.167 6.5 3.023 1.355 8.168.25 7.063 6.5.813l6.25 6.25-1.105 1.104Z" fill="currentColor"/></svg><svg fill="none" viewBox="0 0 17 16" id="icon-add" xmlns="http://www.w3.org/2000/svg"><path d="M12.333 15.167h-8A3.17 3.17 0 0 1 1.167 12V4A3.17 3.17 0 0 1 4.333.833h8A3.17 3.17 0 0 1 15.5 4v8a3.17 3.17 0 0 1-3.167 3.167Zm-8-13.334A2.17 2.17 0 0 0 2.167 4v8a2.17 2.17 0 0 0 2.166 2.167h8A2.17 2.17 0 0 0 14.5 12V4a2.17 2.17 0 0 0-2.167-2.167h-8Z" fill="currentColor"/><path d="M8.334 11.833a.5.5 0 0 1-.5-.5V4.667a.5.5 0 1 1 1 0v6.666a.5.5 0 0 1-.5.5Z" fill="currentColor"/><path d="M11.667 8.5H5a.5.5 0 1 1 0-1h6.667a.5.5 0 1 1 0 1Z" fill="currentColor"/></svg><svg fill="none" viewBox="0 0 16 16" id="icon-attention" xmlns="http://www.w3.org/2000/svg"><path fill="#fff" fill-opacity=".01" d="M0 0h16v16H0z"/><path d="M8.982 1.565a1.13 1.13 0 0 0-1.96 0L.165 13.232c-.457.778.09 1.767.98 1.767h13.713c.889 0 1.438-.99.98-1.767L8.982 1.565ZM8 5c.535 0 .954.462.9.995l-.35 3.507a.552.552 0 0 1-1.1 0L7.1 5.994A.905.905 0 0 1 8 5Zm.002 6a1 1 0 1 1 0 2 1 1 0 0 1 0-2Z" fill="currentColor"/></svg><svg fill="none" viewBox="0 0 24 24" id="icon-close" xmlns="http://www.w3.org/2000/svg"><path fill-rule="evenodd" clip-rule="evenodd" d="M18.707 5.293a1 1 0 0 1 0 1.414l-12 12a1 1 0 0 1-1.414-1.414l12-12a1 1 0 0 1 1.414 0Z" fill="currentColor"/><path fill-rule="evenodd" clip-rule="evenodd" d="M5.293 5.293a1 1 0 0 1 1.414 0l12 12a1 1 0 0 1-1.414 1.414l-12-12a1 1 0 0 1 0-1.414Z" fill="currentColor"/></svg><svg fill="none" viewBox="0 0 16 16" id="icon-download" xmlns="http://www.w3.org/2000/svg"><path d="M16 16H0v-1.333h16V16Zm-6.573-3.26L15.973 6H11.34V0H4.667v6H.047l6.533 6.74c.38.387.88.593 1.413.593.534 0 1.04-.206 1.42-.593h.014Z" fill="currentColor"/></svg><svg fill="none" viewBox="0 0 16 16" id="icon-edit" xmlns="http://www.w3.org/2000/svg"><path d="M15.062.938A3.18 3.18 0 0 0 12.8 0a3.18 3.18 0 0 0-2.264.938L1.588 9.884a.625.625 0 0 0-.16.275L.023 15.207a.625.625 0 0 0 .773.77l5.048-1.435a.625.625 0 0 0 .272-1.042l-3.183-3.193 5.633-5.632 2.755 2.756-3.89 3.88a.625.625 0 1 0 .882.885l6.75-6.731A3.18 3.18 0 0 0 16 3.201a3.18 3.18 0 0 0-.938-2.263ZM4.482 13.63l-2.956.84.827-2.974 2.128 2.134Zm7.724-7.082L9.45 3.79l.898-.897 2.758 2.758-.899.896ZM14.18 4.58l-.19.19-2.758-2.76.188-.188a1.938 1.938 0 0 1 1.38-.572c.52 0 1.01.203 1.38.572.368.368.571.858.571 1.38 0 .52-.203 1.01-.57 1.378Z" fill="currentColor"/></svg><svg fill="none" viewBox="0 0 16 16" id="icon-eye" xmlns="http://www.w3.org/2000/svg"><path d="M15.88 7.454C15.296 6.174 13 2 8 2S.705 6.174.12 7.454a1.313 1.313 0 0 0 0 1.093C.704 9.826 3 14 8 14s7.295-4.174 7.88-5.454a1.312 1.312 0 0 0 0-1.092ZM8 12a4 4 0 1 1 0-8 4 4 0 0 1 0 8Z" fill="currentColor"/><path d="M8 10.667a2.667 2.667 0 1 0 0-5.334 2.667 2.667 0 0 0 0 5.334Z" fill="currentColor"/></svg><svg fill="none" viewBox="0 0 24 24" id="icon-file-doc" xmlns="http://www.w3.org/2000/svg"><path d="M6 0c-.825 0-1.5.675-1.5 1.5v21c0 .825.675 1.5 1.5 1.5h15c.825 0 1.5-.675 1.5-1.5V6l-6-6H6Z" fill="#E2E5E7"/><path d="M18 6h4.5l-6-6v4.5c0 .825.675 1.5 1.5 1.5Z" fill="#B0B7BD"/><path d="M22.5 10.5 18 6h4.5v4.5Z" fill="#CAD1D8"/><path d="M19.5 19.5c0 .413-.337.75-.75.75H2.25a.752.752 0 0 1-.75-.75V12c0-.412.337-.75.75-.75h16.5c.413 0 .75.338.75.75v7.5Z" fill="#50BEE8"/><path d="M4.34 18c-.199 0-.415-.109-.415-.372v-3.406c0-.216.216-.372.414-.372h1.374c2.74 0 2.68 4.15.053 4.15H4.339Zm.377-3.419v2.687h.996c1.619 0 1.69-2.687 0-2.687h-.996ZM10.688 18.06c-1.11.048-2.262-.69-2.262-2.16 0-1.475 1.152-2.2 2.261-2.2 1.05.053 2.147.78 2.147 2.2 0 1.423-1.097 2.16-2.146 2.16Zm-.067-3.58c-.671 0-1.403.474-1.403 1.421 0 .942.732 1.422 1.403 1.422.69 0 1.428-.48 1.428-1.422 0-.948-.737-1.42-1.428-1.42ZM13.54 15.895c0-1.158.726-2.153 2.105-2.153.522 0 .936.156 1.373.534.162.15.18.413.018.581a.407.407 0 0 1-.552-.018c-.245-.258-.497-.329-.84-.329-.922 0-1.366.654-1.366 1.385 0 .744.438 1.428 1.367 1.428.342 0 .66-.14.936-.384a.403.403 0 0 1 .551.072c.096.132.143.354-.066.563-.42.39-.923.469-1.422.469-1.45 0-2.104-.991-2.104-2.148Z" fill="#fff"/><path d="M18.75 20.25H4.5V21h14.25c.413 0 .75-.337.75-.75v-.75c0 .413-.337.75-.75.75Z" fill="#CAD1D8"/></svg><svg fill="none" viewBox="0 0 32 32" id="icon-file-jpg" xmlns="http://www.w3.org/2000/svg"><path d="M8 0C6.9 0 6 .9 6 2v28c0 1.1.9 2 2 2h20c1.1 0 2-.9 2-2V8l-8-8H8Z" fill="#E2E5E7"/><path d="M24 8h6l-8-8v6c0 1.1.9 2 2 2Z" fill="#B0B7BD"/><path d="m30 14-6-6h6v6Z" fill="#CAD1D8"/><path d="M26 26c0 .55-.45 1-1 1H3c-.55 0-1-.45-1-1V16c0-.55.45-1 1-1h22c.55 0 1 .45 1 1v10Z" fill="#71BC78"/><path d="M8.873 18.947c0-.672 1.056-.672 1.056 0v3.158c0 1.256-.6 2.016-1.983 2.016-.68 0-1.247-.185-1.743-.824-.408-.488.36-1.19.776-.68.336.416.696.512 1.047.496.447-.016.84-.217.848-1.008v-3.158ZM11.334 18.947a.55.55 0 0 1 .544-.552h1.847c1.04 0 1.976.696 1.976 2.03 0 1.264-.936 1.968-1.976 1.968H12.39v1.056c0 .352-.224.551-.512.551a.54.54 0 0 1-.544-.55v-4.503Zm1.056.455v1.992h1.335c.536 0 .96-.473.96-.969 0-.559-.424-1.023-.96-1.023H12.39ZM21.411 23.385c-.568.472-1.264.672-1.967.672-1.68 0-2.871-.959-2.871-2.863 0-1.614 1.256-2.869 2.942-2.869.632 0 1.327.215 1.823.703.487.48-.216 1.191-.695.768-.296-.288-.712-.504-1.128-.504-.967 0-1.902.775-1.902 1.902 0 1.184.783 1.904 1.831 1.904.487 0 .903-.145 1.199-.36v-.983h-1.199c-.712 0-.64-.976 0-.976h1.599c.296 0 .567.224.567.472v1.703c0 .144-.063.278-.199.431Z" fill="#fff"/><path d="M25 27H6v1h19c.55 0 1-.45 1-1v-1c0 .55-.45 1-1 1Z" fill="#CAD1D8"/></svg><svg fill="none" viewBox="0 0 32 32" id="icon-file-pdf" xmlns="http://www.w3.org/2000/svg"><path d="M8 0C6.9 0 6 .9 6 2v28c0 1.1.9 2 2 2h20c1.1 0 2-.9 2-2V8l-8-8H8Z" fill="#E2E5E7"/><path d="M24 8h6l-8-8v6c0 1.1.9 2 2 2Z" fill="#B0B7BD"/><path d="m30 14-6-6h6v6Z" fill="#CAD1D8"/><path d="M26 26c0 .55-.45 1-1 1H3c-.55 0-1-.45-1-1V16c0-.55.45-1 1-1h22c.55 0 1 .45 1 1v10Z" fill="#F15642"/><path d="M6.359 18.947c0-.264.208-.552.543-.552h1.847c1.04 0 1.976.696 1.976 2.03 0 1.264-.936 1.968-1.976 1.968H7.414v1.056c0 .352-.224.551-.512.551a.539.539 0 0 1-.543-.55v-4.503Zm1.055.455v1.992h1.335c.536 0 .96-.473.96-.969 0-.559-.424-1.023-.96-1.023H7.414ZM12.29 24c-.263 0-.551-.144-.551-.495v-4.542c0-.287.288-.496.552-.496h1.83c3.655 0 3.575 5.533.073 5.533H12.29Zm.505-4.557v3.582h1.327c2.159 0 2.255-3.582 0-3.582h-1.327ZM18.992 19.507v1.271h2.039c.288 0 .576.288.576.567 0 .264-.288.48-.576.48h-2.04v1.68c0 .28-.198.494-.478.494-.352 0-.567-.215-.567-.495v-4.542c0-.287.216-.496.567-.496h2.807c.352 0 .56.21.56.496a.552.552 0 0 1-.56.544h-2.328v.001Z" fill="#fff"/><path d="M25 27H6v1h19c.55 0 1-.45 1-1v-1c0 .55-.45 1-1 1Z" fill="#CAD1D8"/></svg><svg fill="none" viewBox="0 0 32 32" id="icon-letter" xmlns="http://www.w3.org/2000/svg"><path d="M31.227 25.467c-.633.76-1.571 1.2-2.56 1.2H3.333c-.989 0-1.927-.44-2.56-1.2L13 15.28l1.267.867c1.043.72 2.423.72 3.466 0L19 15.28l12.227 10.187Z" fill="#1E88E5"/><path d="M31.413 6.787 19 15.28l-1.267.867a3.052 3.052 0 0 1-3.466 0L13 15.28.587 6.773a3.348 3.348 0 0 1 2.747-1.44h25.333a3.29 3.29 0 0 1 2.746 1.454Z" fill="#64B5F6"/><path d="M13 15.28.773 25.467A3.318 3.318 0 0 1 0 23.334V8.667c-.004-.677.2-1.338.587-1.893L13 15.28ZM32 8.667v14.667a3.32 3.32 0 0 1-.773 2.133L19 15.28l12.413-8.493c.384.551.589 1.208.587 1.88Z" fill="#2196F3"/></svg><svg fill="none" viewBox="0 0 17 18" id="icon-logout" xmlns="http://www.w3.org/2000/svg"><path d="M11.986 13.648a.664.664 0 0 0-.664.665v1.859H1.826V1.828h9.496v1.86a.664.664 0 1 0 1.328 0V1.163A.664.664 0 0 0 11.986.5H1.162a.664.664 0 0 0-.664.664v15.672c0 .367.297.664.664.664h10.824a.664.664 0 0 0 .664-.664v-2.523a.664.664 0 0 0-.664-.665Z" fill="#ED2B1B"/><path d="m16.307 8.53-1.784-1.784a.664.664 0 1 0-.939.94l.65.65h-5.5a.664.664 0 0 0 0 1.328h5.5l-.65.65a.664.664 0 1 0 .94.94l1.783-1.784a.653.653 0 0 0 .195-.47.674.674 0 0 0-.195-.47Z" fill="#ED2B1B"/></svg><svg fill="none" viewBox="0 0 24 24" id="icon-message" xmlns="http://www.w3.org/2000/svg"><path fill-rule="evenodd" clip-rule="evenodd" d="M9.434 3.234a.8.8 0 0 1 1.132 0l11.6 11.6a.8.8 0 0 1 0 1.132L18.73 19.4H23.2a.8.8 0 0 1 0 1.6H.8a.8.8 0 1 1 0-1.6h9.269l-7.835-7.834a.8.8 0 0 1 0-1.132l7.2-7.2Zm10.437 12.764L16.468 19.4H12.33l-8.4-8.4L9.45 5.482l1.36 8.84a.8.8 0 0 0 .696.672l8.365 1.004Zm-.472-1.668-7.1-.852-1.137-7.384L19.4 14.33Z" fill="currentColor"/></svg><svg fill="none" viewBox="0 0 17 19" id="icon-pause" xmlns="http://www.w3.org/2000/svg"><path d="M6.708 2.396v13.417a2.396 2.396 0 0 1-2.396 2.395H2.397A2.396 2.396 0 0 1 0 15.813V2.396A2.396 2.396 0 0 1 2.396 0h1.917a2.396 2.396 0 0 1 2.396 2.396ZM16.292 2.396v13.417a2.396 2.396 0 0 1-2.396 2.395h-1.917a2.396 2.396 0 0 1-2.395-2.395V2.396A2.396 2.396 0 0 1 11.979 0h1.917a2.396 2.396 0 0 1 2.396 2.396Z" fill="#C00"/><path d="M0 9.104h6.708v6.709a2.396 2.396 0 0 1-2.396 2.395H2.397A2.396 2.396 0 0 1 0 15.813V9.104ZM16.292 9.104v6.709a2.396 2.396 0 0 1-2.396 2.395h-1.917a2.396 2.396 0 0 1-2.395-2.395V9.104h6.708Z" fill="#A30000"/></svg><svg fill="none" viewBox="0 0 16 18" id="icon-play" xmlns="http://www.w3.org/2000/svg"><path fill-rule="evenodd" clip-rule="evenodd" d="M15.389 8.262 1.279.115A.85.85 0 0 0 .852 0H.851a.852.852 0 0 0-.738.427A.844.844 0 0 0 0 .854v16.293a.85.85 0 0 0 1.278.738l14.11-8.147a.852.852 0 0 0 0-1.476Z" fill="#C00"/><path fill-rule="evenodd" clip-rule="evenodd" d="M.024 9.062v8.085a.85.85 0 0 0 1.279.738l14.11-8.147a.852.852 0 0 0 .424-.676H.024Z" fill="#A30000"/></svg><svg fill="none" viewBox="0 0 32 32" id="icon-printer" xmlns="http://www.w3.org/2000/svg"><path fill-rule="evenodd" clip-rule="evenodd" d="M9.997 1.996c-1.09 0-2 .91-2 2v8c0 1.09.91 2 2 2h12c1.09 0 2-.91 2-2v-8c0-1.09-.91-2-2-2h-12Z" fill="#41A5EE"/><path fill-rule="evenodd" clip-rule="evenodd" d="M3.997 11.996c-1.09 0-2 .91-2 2v11c0 1.09.91 2 2 2h24c1.09 0 2-.91 2-2v-11c0-1.09-.91-2-2-2h-24Z" fill="#07C"/><path fill-rule="evenodd" clip-rule="evenodd" d="M7.997 20.996a1 1 0 0 0 0 2v5c0 1.09.91 2 2 2h12c1.09 0 2-.91 2-2v-5a1 1 0 1 0 0-2h-16Z" fill="#41A5EE"/><path fill-rule="evenodd" clip-rule="evenodd" d="M6.997 15.996a1 1 0 1 0 0 2 1 1 0 0 0 0-2Z" fill="#D7EEFE"/><path fill-rule="evenodd" clip-rule="evenodd" d="M8.997 15.996a1 1 0 1 0 0 2 1 1 0 0 0 0-2Z" fill="#D7EEFE"/><path fill-rule="evenodd" clip-rule="evenodd" d="M10.997 15.996a1 1 0 1 0 0 2 1 1 0 0 0 0-2ZM12.997 4.996a1 1 0 1 0 0 2h6a1 1 0 0 0 0-2h-6ZM12.997 7.996a1 1 0 1 0 0 2h6a1 1 0 0 0 0-2h-6Z" fill="#D7EEFE"/></svg><svg fill="none" viewBox="0 0 18 18" id="icon-question" xmlns="http://www.w3.org/2000/svg"><path d="M9 17.333A8.333 8.333 0 1 1 9 .667a8.333 8.333 0 1 1 0 16.666Zm0-1.666A6.667 6.667 0 1 0 9 2.333a6.667 6.667 0 0 0 0 13.334ZM8.165 11.5h1.667v1.667H8.166V11.5Zm1.667-1.37v.537H8.166v-1.25a.833.833 0 0 1 .833-.834 1.25 1.25 0 1 0-1.225-1.495l-1.635-.327a2.918 2.918 0 1 1 3.694 3.368Z" fill="currentColor"/></svg><svg fill="none" viewBox="0 0 15 16" id="loading" xmlns="http://www.w3.org/2000/svg"><path d="M5.625 5.187H3.178A5.156 5.156 0 0 1 12.656 8h.938A6.095 6.095 0 0 0 2.813 4.1V2.375h-.938v3.75h3.75v-.938Zm3.75 5.625h2.447A5.156 5.156 0 0 1 2.344 8h-.938a6.094 6.094 0 0 0 10.781 3.9v1.725h.938v-3.75h-3.75v.938Z" fill="currentColor"/></svg><svg fill="none" viewBox="0 0 15 16" id="search" xmlns="http://www.w3.org/2000/svg"><path d="m13.593 13.43-3.54-3.54a5.165 5.165 0 1 0-.663.664l3.54 3.54.663-.663ZM1.874 6.595a4.219 4.219 0 1 1 8.438 0 4.219 4.219 0 0 1-8.438 0Z" fill="currentColor"/></svg></svg>